<svg width="204" height="77" viewBox="0 0 204 77" fill="none" xmlns="http://www.w3.org/2000/svg">
<path d="M83.48 26.404C85.3867 26.612 86.912 26.95 88.056 27.418C89.2173 27.886 90.058 28.5013 90.578 29.264C91.098 30.0267 91.358 30.98 91.358 32.124C91.358 33.372 90.9507 34.464 90.136 35.4C89.3387 36.3187 88.2293 37.0293 86.808 37.532C85.3867 38.0173 83.766 38.26 81.946 38.26C79.918 38.26 78.202 38.0087 76.798 37.506C75.394 37.0033 74.3453 36.336 73.652 35.504C72.9587 34.6547 72.612 33.7273 72.612 32.722C72.612 32.5487 72.664 32.41 72.768 32.306C72.8893 32.202 73.0367 32.15 73.21 32.15H78.54C78.904 32.15 79.1987 32.2627 79.424 32.488C79.7187 32.7653 80.048 32.956 80.412 33.06C80.776 33.1467 81.2873 33.19 81.946 33.19C83.5927 33.19 84.416 32.9387 84.416 32.436C84.416 32.228 84.3033 32.0547 84.078 31.916C83.87 31.76 83.4887 31.63 82.934 31.526C82.3967 31.4047 81.5993 31.2833 80.542 31.162C78.1673 30.8847 76.3473 30.2953 75.082 29.394C73.8167 28.4753 73.184 27.184 73.184 25.52C73.184 24.3413 73.5393 23.3013 74.25 22.4C74.9607 21.4987 75.966 20.7967 77.266 20.294C78.5833 19.7913 80.1087 19.54 81.842 19.54C83.6447 19.54 85.222 19.826 86.574 20.398C87.926 20.9527 88.9573 21.646 89.668 22.478C90.3787 23.31 90.734 24.1247 90.734 24.922C90.734 25.0953 90.6733 25.234 90.552 25.338C90.448 25.442 90.3007 25.494 90.11 25.494H84.52C84.2253 25.494 83.9567 25.39 83.714 25.182C83.5233 25.0087 83.298 24.87 83.038 24.766C82.778 24.662 82.3793 24.61 81.842 24.61C80.6807 24.61 80.1 24.8527 80.1 25.338C80.1 25.598 80.3253 25.806 80.776 25.962C81.2267 26.1007 82.128 26.248 83.48 26.404ZM113.11 19.8C113.301 19.8 113.465 19.8693 113.604 20.008C113.743 20.1467 113.812 20.3113 113.812 20.502V24.688C113.812 24.8787 113.743 25.0433 113.604 25.182C113.465 25.3207 113.301 25.39 113.11 25.39H107.52V37.298C107.52 37.4887 107.451 37.6533 107.312 37.792C107.173 37.9307 107.009 38 106.818 38H101.462C101.271 38 101.107 37.9307 100.968 37.792C100.829 37.6533 100.76 37.4887 100.76 37.298V25.39H95.1698C94.9792 25.39 94.8145 25.3207 94.6758 25.182C94.5372 25.0433 94.4678 24.8787 94.4678 24.688V20.502C94.4678 20.3113 94.5372 20.1467 94.6758 20.008C94.8145 19.8693 94.9792 19.8 95.1698 19.8H113.11ZM136.552 37.194C136.586 37.2633 136.604 37.3413 136.604 37.428C136.604 37.584 136.543 37.7227 136.422 37.844C136.318 37.948 136.188 38 136.032 38H130.13C129.887 38 129.662 37.9393 129.454 37.818C129.263 37.6967 129.124 37.5407 129.038 37.35L126.75 32.202H124.566V37.298C124.566 37.4887 124.496 37.6533 124.358 37.792C124.219 37.9307 124.054 38 123.864 38H118.248C118.057 38 117.892 37.9307 117.754 37.792C117.615 37.6533 117.546 37.4887 117.546 37.298V20.502C117.546 20.3113 117.615 20.1467 117.754 20.008C117.892 19.8693 118.057 19.8 118.248 19.8H128.362C129.922 19.8 131.282 20.0513 132.444 20.554C133.622 21.0567 134.524 21.7847 135.148 22.738C135.772 23.6913 136.084 24.8093 136.084 26.092C136.084 28.4493 135.174 30.1567 133.354 31.214L136.552 37.194ZM127.816 27.392C128.197 27.392 128.492 27.2707 128.7 27.028C128.908 26.768 129.012 26.4473 129.012 26.066C129.012 25.6847 128.908 25.3553 128.7 25.078C128.509 24.7833 128.214 24.636 127.816 24.636H124.566V27.392H127.816ZM148.32 38.26C145.408 38.26 143.094 37.6273 141.378 36.362C139.679 35.0967 138.83 33.1207 138.83 30.434V20.502C138.83 20.3113 138.899 20.1467 139.038 20.008C139.176 19.8693 139.341 19.8 139.532 19.8H144.966C145.156 19.8 145.321 19.8693 145.46 20.008C145.598 20.1467 145.668 20.3113 145.668 20.502V30.85C145.668 31.5607 145.902 32.1067 146.37 32.488C146.855 32.8693 147.505 33.06 148.32 33.06C149.134 33.06 149.776 32.8693 150.244 32.488C150.729 32.1067 150.972 31.5607 150.972 30.85V20.502C150.972 20.3113 151.041 20.1467 151.18 20.008C151.318 19.8693 151.483 19.8 151.674 19.8H157.108C157.298 19.8 157.463 19.8693 157.602 20.008C157.74 20.1467 157.81 20.3113 157.81 20.502V30.434C157.81 33.1207 156.952 35.0967 155.236 36.362C153.537 37.6273 151.232 38.26 148.32 38.26ZM168.017 30.98C168.017 31.6907 168.251 32.2367 168.719 32.618C169.205 32.9993 169.855 33.19 170.669 33.19C171.397 33.19 171.935 33.0687 172.281 32.826C172.628 32.5833 172.923 32.2193 173.165 31.734C173.391 31.2833 173.694 31.058 174.075 31.058H179.691C179.847 31.058 179.977 31.1187 180.081 31.24C180.203 31.344 180.263 31.474 180.263 31.63C180.263 32.6873 179.908 33.7273 179.197 34.75C178.487 35.7553 177.403 36.596 175.947 37.272C174.509 37.9307 172.749 38.26 170.669 38.26C168.815 38.26 167.159 37.9827 165.703 37.428C164.265 36.856 163.121 35.9893 162.271 34.828C161.422 33.6493 160.997 32.1847 160.997 30.434V27.366C160.997 25.6153 161.422 24.1593 162.271 22.998C163.121 21.8193 164.265 20.9527 165.703 20.398C167.159 19.826 168.815 19.54 170.669 19.54C172.749 19.54 174.509 19.878 175.947 20.554C177.403 21.2127 178.487 22.0533 179.197 23.076C179.908 24.0813 180.263 25.1127 180.263 26.17C180.263 26.326 180.203 26.4647 180.081 26.586C179.977 26.69 179.847 26.742 179.691 26.742H174.075C173.694 26.742 173.391 26.5167 173.165 26.066C172.923 25.5807 172.628 25.2167 172.281 24.974C171.935 24.7313 171.397 24.61 170.669 24.61C169.855 24.61 169.205 24.8007 168.719 25.182C168.251 25.5633 168.017 26.1093 168.017 26.82V30.98ZM201.469 19.8C201.66 19.8 201.825 19.8693 201.963 20.008C202.102 20.1467 202.171 20.3113 202.171 20.502V24.688C202.171 24.8787 202.102 25.0433 201.963 25.182C201.825 25.3207 201.66 25.39 201.469 25.39H195.879V37.298C195.879 37.4887 195.81 37.6533 195.671 37.792C195.533 37.9307 195.368 38 195.177 38H189.821C189.631 38 189.466 37.9307 189.327 37.792C189.189 37.6533 189.119 37.4887 189.119 37.298V25.39H183.529C183.339 25.39 183.174 25.3207 183.035 25.182C182.897 25.0433 182.827 24.8787 182.827 24.688V20.502C182.827 20.3113 182.897 20.1467 183.035 20.008C183.174 19.8693 183.339 19.8 183.529 19.8H201.469ZM90.838 43.8C91.0287 43.8 91.1933 43.8693 91.332 44.008C91.4707 44.1467 91.54 44.3113 91.54 44.502V48.454C91.54 48.6447 91.4707 48.8093 91.332 48.948C91.1933 49.0867 91.0287 49.156 90.838 49.156H80.62V50.82H89.148C89.3387 50.82 89.5033 50.8893 89.642 51.028C89.7807 51.1667 89.85 51.3313 89.85 51.522V55.448C89.85 55.6387 89.7807 55.8033 89.642 55.942C89.5033 56.0807 89.3387 56.15 89.148 56.15H80.62V61.298C80.62 61.4887 80.5507 61.6533 80.412 61.792C80.2733 61.9307 80.1087 62 79.918 62H74.302C74.1113 62 73.9467 61.9307 73.808 61.792C73.6693 61.6533 73.6 61.4887 73.6 61.298V44.502C73.6 44.3113 73.6693 44.1467 73.808 44.008C73.9467 43.8693 74.1113 43.8 74.302 43.8H90.838ZM107.676 56.67H112.382C112.573 56.67 112.737 56.7393 112.876 56.878C113.015 57.0167 113.084 57.1813 113.084 57.372V61.298C113.084 61.4887 113.015 61.6533 112.876 61.792C112.737 61.9307 112.573 62 112.382 62H95.8978C95.7072 62 95.5425 61.9307 95.4038 61.792C95.2652 61.6533 95.1958 61.4887 95.1958 61.298V57.372C95.1958 57.1813 95.2652 57.0167 95.4038 56.878C95.5425 56.7393 95.7072 56.67 95.8978 56.67H100.656V49.13H95.8978C95.7072 49.13 95.5425 49.0607 95.4038 48.922C95.2652 48.7833 95.1958 48.6187 95.1958 48.428V44.502C95.1958 44.3113 95.2652 44.1467 95.4038 44.008C95.5425 43.8693 95.7072 43.8 95.8978 43.8H112.382C112.573 43.8 112.737 43.8693 112.876 44.008C113.015 44.1467 113.084 44.3113 113.084 44.502V48.428C113.084 48.6187 113.015 48.7833 112.876 48.922C112.737 49.0607 112.573 49.13 112.382 49.13H107.676V56.67ZM134.706 56.67C134.896 56.67 135.061 56.7393 135.2 56.878C135.338 57.0167 135.408 57.1813 135.408 57.372V61.298C135.408 61.4887 135.338 61.6533 135.2 61.792C135.061 61.9307 134.896 62 134.706 62H119.522C119.331 62 119.166 61.9307 119.028 61.792C118.889 61.6533 118.82 61.4887 118.82 61.298V44.502C118.82 44.3113 118.889 44.1467 119.028 44.008C119.166 43.8693 119.331 43.8 119.522 43.8H125.138C125.328 43.8 125.493 43.8693 125.632 44.008C125.77 44.1467 125.84 44.3113 125.84 44.502V56.67H134.706ZM151.726 44.502C151.986 44.034 152.358 43.8 152.844 43.8H157.602C157.792 43.8 157.957 43.8693 158.096 44.008C158.234 44.1467 158.304 44.3113 158.304 44.502V61.298C158.304 61.4887 158.234 61.6533 158.096 61.792C157.957 61.9307 157.792 62 157.602 62H152.896C152.705 62 152.54 61.9307 152.402 61.792C152.263 61.6533 152.194 61.4887 152.194 61.298V53.238L150.296 56.982C150.244 57.1033 150.122 57.242 149.932 57.398C149.741 57.554 149.498 57.632 149.204 57.632H147.436C147.141 57.632 146.898 57.554 146.708 57.398C146.517 57.242 146.396 57.1033 146.344 56.982L144.446 53.238V61.298C144.446 61.4887 144.376 61.6533 144.238 61.792C144.099 61.9307 143.934 62 143.744 62H139.038C138.847 62 138.682 61.9307 138.544 61.792C138.405 61.6533 138.336 61.4887 138.336 61.298V44.502C138.336 44.3113 138.405 44.1467 138.544 44.008C138.682 43.8693 138.847 43.8 139.038 43.8H143.796C144.281 43.8 144.654 44.034 144.914 44.502L148.32 50.742L151.726 44.502ZM178.833 56.93C179.024 56.93 179.189 56.9993 179.327 57.138C179.466 57.2767 179.535 57.4413 179.535 57.632V61.298C179.535 61.4887 179.466 61.6533 179.327 61.792C179.189 61.9307 179.024 62 178.833 62H162.401C162.211 62 162.046 61.9307 161.907 61.792C161.769 61.6533 161.699 61.4887 161.699 61.298V44.502C161.699 44.3113 161.769 44.1467 161.907 44.008C162.046 43.8693 162.211 43.8 162.401 43.8H178.573C178.764 43.8 178.929 43.8693 179.067 44.008C179.206 44.1467 179.275 44.3113 179.275 44.502V48.168C179.275 48.3587 179.206 48.5233 179.067 48.662C178.929 48.8007 178.764 48.87 178.573 48.87H168.459V50.508H177.143C177.334 50.508 177.499 50.5773 177.637 50.716C177.776 50.8547 177.845 51.0193 177.845 51.21V54.59C177.845 54.7807 177.776 54.9453 177.637 55.084C177.499 55.2227 177.334 55.292 177.143 55.292H168.459V56.93H178.833ZM193.929 50.404C195.836 50.612 197.361 50.95 198.505 51.418C199.667 51.886 200.507 52.5013 201.027 53.264C201.547 54.0267 201.807 54.98 201.807 56.124C201.807 57.372 201.4 58.464 200.585 59.4C199.788 60.3187 198.679 61.0293 197.257 61.532C195.836 62.0173 194.215 62.26 192.395 62.26C190.367 62.26 188.651 62.0087 187.247 61.506C185.843 61.0033 184.795 60.336 184.101 59.504C183.408 58.6547 183.061 57.7273 183.061 56.722C183.061 56.5487 183.113 56.41 183.217 56.306C183.339 56.202 183.486 56.15 183.659 56.15H188.989C189.353 56.15 189.648 56.2627 189.873 56.488C190.168 56.7653 190.497 56.956 190.861 57.06C191.225 57.1467 191.737 57.19 192.395 57.19C194.042 57.19 194.865 56.9387 194.865 56.436C194.865 56.228 194.753 56.0547 194.527 55.916C194.319 55.76 193.938 55.63 193.383 55.526C192.846 55.4047 192.049 55.2833 190.991 55.162C188.617 54.8847 186.797 54.2953 185.531 53.394C184.266 52.4753 183.633 51.184 183.633 49.52C183.633 48.3413 183.989 47.3013 184.699 46.4C185.41 45.4987 186.415 44.7967 187.715 44.294C189.033 43.7913 190.558 43.54 192.291 43.54C194.094 43.54 195.671 43.826 197.023 44.398C198.375 44.9527 199.407 45.646 200.117 46.478C200.828 47.31 201.183 48.1247 201.183 48.922C201.183 49.0953 201.123 49.234 201.001 49.338C200.897 49.442 200.75 49.494 200.559 49.494H194.969C194.675 49.494 194.406 49.39 194.163 49.182C193.973 49.0087 193.747 48.87 193.487 48.766C193.227 48.662 192.829 48.61 192.291 48.61C191.13 48.61 190.549 48.8527 190.549 49.338C190.549 49.598 190.775 49.806 191.225 49.962C191.676 50.1007 192.577 50.248 193.929 50.404Z" fill="#F9F7F8"/>
<g clip-path="url(#clip0)">
<path d="M59.1487 31.6535C60.1376 31.1881 60.9439 30.3382 61.323 29.2215C62.0374 27.1173 60.9751 24.8393 58.9408 24.0166C59.0135 23.8857 59.0775 23.7476 59.1274 23.6006C59.5747 22.2828 58.8691 20.8518 57.5514 20.4045C57.4986 20.3866 57.4454 20.3736 57.3922 20.3593C57.6909 18.8151 56.8122 17.2488 55.2811 16.729C53.7354 16.2042 52.0677 16.9305 51.3764 18.3644C51.3385 18.4428 51.2426 18.4712 51.1642 18.4331C51.0104 18.3581 50.8505 18.2916 50.6842 18.2351C50.6681 18.2297 50.652 18.2253 50.6359 18.2201C50.7444 18.001 50.841 17.7732 50.9218 17.5354C51.9084 14.6291 50.3523 11.4734 47.446 10.4867C44.6348 9.53236 41.5903 10.9575 40.5013 13.6821C40.3926 12.0293 39.2738 10.531 37.5637 10.0383C35.5663 9.46297 33.4227 10.5198 32.6611 12.4538C32.4132 13.0833 32.3343 13.7332 32.3979 14.3575C32.2296 14.2087 32.0297 14.0899 31.8035 14.0131C30.8905 13.7032 29.8991 14.1921 29.5892 15.1051C29.5837 15.121 29.5805 15.1372 29.5755 15.1533C29.4141 15.0644 29.2435 14.9877 29.063 14.9264C27.4073 14.3643 25.6095 15.2509 25.0474 16.9065C24.6304 18.135 25.0113 19.4414 25.9119 20.2634L26.641 31.1659L51.6494 39.6559L59.1487 31.6535Z" fill="#FCD89F"/>
<path d="M59.1487 31.6535C60.1376 31.1881 60.9439 30.3382 61.323 29.2215C62.0374 27.1173 60.9751 24.8393 58.9408 24.0166C59.0135 23.8857 59.0775 23.7476 59.1274 23.6006C59.5747 22.2828 58.8691 20.8518 57.5514 20.4045C57.4986 20.3866 57.4454 20.3736 57.3922 20.3593C57.6909 18.8151 56.8122 17.2488 55.2811 16.729C53.7354 16.2042 52.0677 16.9305 51.3764 18.3644C51.3385 18.4428 51.2426 18.4712 51.1642 18.4331C51.0104 18.3581 50.8505 18.2916 50.6842 18.2351C50.6681 18.2297 50.652 18.2253 50.6359 18.2201C50.7444 18.001 50.841 17.7732 50.9218 17.5354C51.9084 14.6291 50.3523 11.4734 47.446 10.4867C44.6348 9.53236 41.5903 10.9575 40.5013 13.6821C40.3926 12.0293 39.2738 10.531 37.5637 10.0383C35.5663 9.46297 33.4227 10.5198 32.6611 12.4538C32.4132 13.0833 32.3343 13.7332 32.3979 14.3575C32.2296 14.2087 32.0297 14.0899 31.8035 14.0131C30.8905 13.7032 29.8991 14.1921 29.5892 15.1051C29.5837 15.121 29.5805 15.1372 29.5755 15.1533C29.4141 15.0644 29.2435 14.9877 29.063 14.9264C27.4073 14.3643 25.6095 15.2509 25.0474 16.9065C24.6304 18.135 25.0113 19.4414 25.9119 20.2634L26.641 31.1659L51.6494 39.6559L59.1487 31.6535Z" fill="#FCD89F"/>
<path d="M25.3694 19.5201C25.9315 17.8644 27.7293 16.9779 29.3849 17.54C29.4543 17.5636 29.5224 17.5894 29.5888 17.6174C29.7768 17.6963 29.9926 17.658 30.1407 17.5179C30.5634 17.1176 31.4522 16.3983 32.1254 16.6268C32.1631 16.6396 32.2001 16.6535 32.2362 16.6687C32.452 16.7585 32.6921 16.5979 32.7034 16.3645C32.7241 15.9324 32.8146 15.4953 32.9829 15.0676C33.7445 13.1336 35.8879 12.0767 37.8853 12.6519C39.0986 13.0012 40.0141 13.8568 40.4826 14.9145C40.673 15.3445 41.2485 15.4104 41.5301 15.0337C42.9319 13.1582 45.4306 12.3068 47.7679 13.1003C49.4034 13.6555 50.6121 14.8979 51.18 16.396C51.4814 13.8463 49.9748 11.3451 47.4459 10.4866C44.6347 9.53221 41.5902 10.9573 40.5012 13.6819C40.3925 12.0291 39.2738 10.5307 37.5634 10.0381C35.566 9.46286 33.4225 10.5197 32.6609 12.4538C32.4131 13.0832 32.334 13.7332 32.3977 14.3573C32.2294 14.2086 32.0295 14.0897 31.8033 14.013C30.8903 13.703 29.8989 14.1919 29.589 15.1049C29.5836 15.1208 29.5803 15.137 29.5753 15.1532C29.414 15.0643 29.2433 14.9875 29.0628 14.9262C27.4071 14.3642 25.6093 15.2507 25.0472 16.9064C24.7319 17.8353 24.8724 18.8081 25.3493 19.583C25.3562 19.562 25.3622 19.5412 25.3694 19.5201Z" fill="#FBC773"/>
<path d="M44.8597 66.5373L43.7779 62.9003L18.2255 54.2256L15.6674 56.6269L14.9898 59.9195C14.8737 60.4835 15.1957 61.0465 15.7412 61.2317L42.0365 70.1586C42.5819 70.3438 43.1802 70.0931 43.4315 69.5751L44.897 66.5549L44.8597 66.5373Z" fill="#E43E54"/>
<path d="M60.5313 33.2893C58.971 30.7652 56.5537 29.7381 52.8014 31.0447L49.1599 29.8085L37.5351 64.0507L38.4449 64.3596L44.8596 66.5373L44.8969 66.5549L60.5813 34.22C60.7259 33.9217 60.7053 33.5709 60.5313 33.2893Z" fill="#F9F7F8"/>
<path d="M45.3668 28.5207L41.7495 27.2927L30.1247 61.535L33.0069 62.5134L38.4449 64.3596L52.8015 31.0447C51.0195 27.9607 48.5763 27.0064 45.3668 28.5207Z" fill="#E43E54"/>
<path d="M31.0137 23.6491C28.8324 20.3282 26.2894 19.6714 23.5149 20.7238C23.2055 20.8413 22.9755 21.107 22.9086 21.4317L15.6671 56.6279L22.1206 58.8188L33.5241 25.2284L31.0137 23.6491Z" fill="#F9F7F8"/>
<path d="M38.4487 26.1721C36.8245 23.0168 34.3052 22.2864 31.014 23.6481L22.1209 58.8178L27.5589 60.6639L29.5902 61.3535L41.215 27.1113L38.4487 26.1721Z" fill="#E43E54"/>
<path d="M33.0069 62.5134L45.3667 28.5207C43.618 25.5754 41.4024 24.4424 38.4487 26.1721L27.5589 60.6639L33.0069 62.5134Z" fill="#F9F7F8"/>
<path d="M44.8596 66.5373L44.897 66.5549L44.899 66.5507L44.8596 66.5373Z" fill="#EFEDEF"/>
<path d="M28.4956 22.4146C28.9192 22.2539 29.3373 22.1336 29.7496 22.056C27.8708 20.1419 25.7693 19.8685 23.5148 20.7237C23.2053 20.8412 22.9754 21.1069 22.9085 21.4316L15.6669 56.6278L20.6476 58.3187L27.8891 23.1225C27.9562 22.7978 28.1861 22.5322 28.4956 22.4146Z" fill="#EFEDEF"/>
<path d="M45.3784 28.5156C45.3804 28.5195 45.3824 28.5231 45.3845 28.5269C45.4278 28.5015 45.4704 28.4788 45.5133 28.4547C45.4683 28.4751 45.4236 28.4944 45.3784 28.5156Z" fill="#EFEDEF"/>
<path d="M42.3908 25.6063C41.9943 25.4511 41.5794 25.3675 41.145 25.3591C41.5814 25.3846 41.9967 25.4666 42.3908 25.6063Z" fill="#EFEDEF"/>
<path d="M44.8596 66.5373L44.8969 66.5549L44.899 66.5507L44.8596 66.5373Z" fill="#EFEDEF"/>
<path d="M63.1389 55.2706C63.5078 54.1839 62.926 53.0039 61.8392 52.635C61.0097 52.3533 60.127 52.6269 59.591 53.255C59.3826 53.061 59.132 52.9058 58.8449 52.8084C57.7582 52.4394 56.5782 53.0213 56.2093 54.108C55.8404 55.1948 56.4222 56.3748 57.5089 56.7437C57.7015 56.8091 57.8969 56.8431 58.0904 56.8513C57.9392 57.8296 58.5048 58.8047 59.4745 59.134C60.5612 59.5029 61.7413 58.921 62.1102 57.8343C62.2676 57.3705 62.2507 56.8902 62.0964 56.4629C62.5705 56.227 62.9553 55.8115 63.1389 55.2706Z" fill="#FCD89F"/>
<path d="M61.6439 58.3923C60.6742 58.0631 60.1085 57.088 60.2598 56.1096C60.0663 56.1015 59.8709 56.0674 59.6783 56.002C58.5916 55.6331 58.0097 54.4531 58.3787 53.3663C58.4542 53.1438 58.5652 52.9439 58.701 52.7675C57.656 52.494 56.5621 53.0692 56.2094 54.1081C55.8405 55.1948 56.4223 56.3748 57.5091 56.7437C57.7016 56.8091 57.897 56.8432 58.0905 56.8514C57.9392 57.8297 58.5049 58.8048 59.4746 59.134C60.3388 59.4274 61.2605 59.1181 61.7879 58.4331C61.7399 58.4205 61.6917 58.4085 61.6439 58.3923Z" fill="#FBCE85"/>
<path d="M17.6869 26.6412C17.5996 25.4969 16.6012 24.64 15.457 24.7272C14.5834 24.7938 13.879 25.392 13.6326 26.18C13.3648 26.0834 13.0734 26.039 12.7712 26.062C11.6269 26.1494 10.77 27.1477 10.8572 28.292C10.9445 29.4362 11.9429 30.2931 13.0871 30.2059C13.2899 30.1905 13.483 30.1451 13.6642 30.0766C13.9091 31.0358 14.8122 31.7106 15.8332 31.6327C16.9775 31.5454 17.8343 30.5471 17.7471 29.4028C17.7099 28.9145 17.5057 28.4795 17.1961 28.1469C17.5396 27.7441 17.7303 27.2107 17.6869 26.6412Z" fill="#FCD89F"/>
<path d="M12.0024 29.9241C11.9151 28.7798 12.772 27.7813 13.9163 27.6942C14.2186 27.6711 14.51 27.7156 14.7778 27.8122C15.0242 27.0241 15.7287 26.426 16.6021 26.3594C16.9874 26.33 17.3548 26.4096 17.6777 26.5691C17.5546 25.4615 16.5769 24.6419 15.457 24.7272C14.5835 24.7938 13.879 25.392 13.6326 26.18C13.3648 26.0834 13.0734 26.039 12.7712 26.062C11.6269 26.1493 10.77 27.1477 10.8572 28.2919C10.915 29.0511 11.3751 29.6817 12.0116 29.9961C12.0089 29.972 12.0042 29.9486 12.0024 29.9241Z" fill="#FBCE85"/>
<path d="M61.2787 32.8276C61.0491 32.4562 60.8044 32.1171 60.545 31.8096C61.2843 31.2164 61.8414 30.4258 62.1544 29.5038C62.9193 27.2507 61.9999 24.8107 60.0427 23.5948C60.4134 22.078 59.6921 20.5045 58.3278 19.7852C58.3385 18.0632 57.2428 16.4675 55.5633 15.8973C54.359 15.4885 53.0804 15.676 52.0694 16.3166C52.1215 15.7278 52.0926 15.1324 51.9815 14.5493C51.8908 14.0729 51.4309 13.7602 50.9545 13.8511C50.4781 13.9419 50.1655 14.4016 50.2563 14.8781C50.4069 15.6682 50.3494 16.4894 50.0902 17.2529C50.0257 17.4429 49.9445 17.6372 49.8489 17.8304C49.7356 18.0591 49.7275 18.3257 49.8266 18.5608C49.9258 18.7961 50.1228 18.9777 50.3648 19.0553L50.402 19.0665C50.5289 19.1096 50.6559 19.162 50.7795 19.2223C51.0265 19.3426 51.3179 19.3606 51.5774 19.2706C51.838 19.1803 52.0475 18.994 52.1673 18.7457C52.6743 17.6941 53.8916 17.1846 54.9988 17.5605C56.0904 17.9311 56.7486 19.0626 56.5301 20.1924C56.4426 20.6446 56.7194 21.087 57.1641 21.2072L57.2002 21.2168C57.2231 21.2228 57.2462 21.2282 57.269 21.2359C58.1262 21.527 58.5868 22.4611 58.2958 23.3183C58.2658 23.4065 58.2256 23.4955 58.1731 23.5902C58.0508 23.8101 58.0289 24.0719 58.1127 24.3092C58.1965 24.5465 58.3781 24.7363 58.6114 24.8306C60.2261 25.4836 61.0518 27.2883 60.4913 28.9392C60.2573 29.6284 59.8145 30.2055 59.2224 30.6046C57.6104 29.5084 55.5919 29.3038 53.1868 29.9998C51.2996 27.1596 48.7357 26.2766 45.7081 27.4218C44.2798 25.3318 42.0281 23.5502 38.7925 25.0057C37.6083 23.1418 36.0154 22.1728 34.0831 22.1206C33.897 21.5004 33.9067 20.8396 34.1191 20.2138C34.6761 18.5731 36.4641 17.6914 38.1049 18.2484C38.5641 18.4043 39.0627 18.1584 39.2186 17.6992C39.3745 17.24 39.1286 16.7413 38.6694 16.5854C36.1117 15.7171 33.3245 17.0915 32.4561 19.6492C32.1605 20.52 32.1165 21.4341 32.3165 22.3077C31.9994 22.3797 31.6755 22.4712 31.3444 22.5846C29.8875 20.6051 28.1979 19.5403 26.2954 19.3962C25.7848 18.789 25.6194 17.9529 25.8789 17.1887C26.2844 15.9942 27.5862 15.3523 28.7807 15.7578C28.906 15.8004 29.0308 15.8557 29.1517 15.9223C29.3835 16.0501 29.6603 16.0664 29.9055 15.967C30.1507 15.8677 30.3379 15.663 30.4152 15.41C30.4192 15.3972 30.4228 15.3844 30.4266 15.3704C30.5868 14.9283 31.0738 14.6927 31.5211 14.8446C31.6309 14.8819 31.7303 14.9394 31.8163 15.0154C32.0875 15.2548 32.4773 15.3039 32.7989 15.1385C33.1205 14.9734 33.308 14.6279 33.2714 14.2683C33.2193 13.7581 33.2888 13.2558 33.478 12.7754C34.073 11.2645 35.7608 10.4328 37.3204 10.8821C38.6114 11.2539 39.5369 12.4021 39.6249 13.7396C39.6518 14.1489 39.9585 14.4847 40.3635 14.5493C40.7687 14.6135 41.1642 14.3887 41.3164 14.0079C42.2391 11.6996 44.8076 10.5182 47.1637 11.3181C47.7056 11.5021 48.2033 11.7799 48.6429 12.1441C49.0165 12.4534 49.57 12.4013 49.8793 12.0278C50.1887 11.6542 50.1366 11.1007 49.7631 10.7914C49.1581 10.2903 48.4734 9.90806 47.7283 9.65509C45.1728 8.78754 42.4358 9.61499 40.7704 11.5608C40.147 10.4351 39.0943 9.56593 37.8066 9.19456C35.3863 8.4974 32.7672 9.78772 31.844 12.132C31.7238 12.4372 31.6348 12.7482 31.5772 13.0636C30.6571 12.9449 29.7453 13.3271 29.1806 14.043C27.1155 13.4376 24.9142 14.5675 24.216 16.6241C23.8842 17.6014 23.9465 18.6447 24.3467 19.5539C23.9725 19.6389 23.5914 19.7543 23.2033 19.9017C22.608 20.1275 22.1763 20.6329 22.0485 21.2535L14.1292 59.7424C13.9242 60.7388 14.4959 61.7365 15.4591 62.0635L41.7538 70.9903C42.717 71.3173 43.778 70.8737 44.2219 69.9585L61.3718 34.6032C61.6483 34.033 61.6135 33.3694 61.2787 32.8276ZM44.3964 28.6207L32.4758 61.4062L28.6544 60.1089L39.1811 26.7681C40.6441 25.9904 42.4944 25.6652 44.3964 28.6207ZM23.8264 21.5436C24.405 21.324 25.0858 21.1325 25.8288 21.1355C25.8784 21.1402 25.928 21.1413 25.9776 21.1376C26.3436 21.1522 26.724 21.2158 27.114 21.3482C28.0626 21.6702 29.0686 22.3995 30.0663 23.8157L23.5921 49.4188C23.4791 49.8658 23.7309 50.3196 24.1602 50.4653C24.1824 50.4728 24.2051 50.4795 24.2281 50.4854C24.6982 50.6043 25.1757 50.3195 25.2947 49.8494L31.7545 24.303C34.3614 23.3529 36.2013 23.9811 37.4989 26.2631L26.9911 59.5442L23.1713 58.2474L24.3765 53.4811C24.4955 53.0109 24.2107 52.5334 23.7404 52.4146C23.2703 52.2956 22.7928 52.5804 22.6739 53.0507L21.503 57.6812L16.6831 56.0449L23.7688 21.6074C23.7747 21.579 23.7961 21.5551 23.8264 21.5436ZM42.3184 69.3271L16.0237 60.4004C15.8974 60.3576 15.8225 60.2268 15.8494 60.0962L16.3263 57.7783L21.8367 59.649L21.8379 59.6494L21.8392 59.6498L38.1617 65.1911L38.1631 65.1916L38.1642 65.192L43.6746 67.0627L42.6418 69.1919C42.5836 69.3118 42.4446 69.37 42.3184 69.3271ZM44.4471 65.4703L39.6272 63.834L49.374 41.2162C49.566 40.7709 49.3606 40.2542 48.9152 40.0623C48.4708 39.8697 47.9532 40.0757 47.7612 40.5212L37.959 63.2677L34.1392 61.9709L46.065 29.1712C48.4838 28.1508 50.326 28.7727 51.8155 31.1134L49.2423 37.0846C49.0503 37.5299 49.2558 38.0465 49.7013 38.2384C49.7231 38.248 49.7452 38.2563 49.7673 38.2638C50.1965 38.4095 50.6727 38.203 50.8551 37.7795L53.4515 31.7545C55.9395 30.9781 57.4942 31.4479 58.5223 32.268C58.5643 32.311 58.6104 32.3489 58.6597 32.3819C59.141 32.799 59.5002 33.2906 59.7849 33.7511C59.8019 33.7786 59.8044 33.8106 59.7918 33.8368L44.4471 65.4703Z" fill="black"/>
<path d="M45.0239 15.9134C44.5647 15.7575 44.066 16.0034 43.9101 16.4626C43.7542 16.9218 44.0001 17.4205 44.4593 17.5764C45.0209 17.7671 45.3226 18.379 45.132 18.9406C44.9761 19.3998 45.222 19.8985 45.6812 20.0544C46.1404 20.2103 46.6391 19.9644 46.795 19.5051C47.297 18.0265 46.5024 16.4154 45.0239 15.9134Z" fill="black"/>
<path d="M50.2557 24.6485C50.5131 23.8903 51.3392 23.4829 52.0974 23.7403C52.5566 23.8962 53.0553 23.6503 53.2112 23.1911C53.3671 22.7319 53.1212 22.2332 52.662 22.0773C50.9868 21.5086 49.1614 22.4087 48.5927 24.0839C48.4368 24.5431 48.6827 25.0418 49.1419 25.1977C49.6011 25.3536 50.0998 25.1077 50.2557 24.6485Z" fill="black"/>
<path d="M63.7487 55.4776C64.2727 53.9341 63.4433 52.2522 61.8998 51.7282C61.009 51.4258 60.0565 51.5641 59.3046 52.0706C59.1766 52.0049 59.0434 51.9484 58.9056 51.9016C57.3621 51.3776 55.6802 52.207 55.1562 53.7505C54.6336 55.2899 55.4573 56.9671 56.993 57.4958C57.141 58.5811 57.887 59.5224 58.9706 59.8902C60.514 60.4142 62.1961 59.5848 62.7201 58.0413C62.8574 57.6369 62.9038 57.2067 62.8598 56.7846C63.2664 56.4416 63.5735 55.9937 63.7487 55.4776ZM61.0488 56.6855C61.1421 56.9442 61.1449 57.2178 61.057 57.4766C60.8444 58.103 60.1616 58.4398 59.5351 58.2271C58.9834 58.0398 58.6475 57.4858 58.7365 56.9102C58.7747 56.6632 58.7058 56.4117 58.5472 56.2186C58.4422 56.0908 58.3045 55.9967 58.1508 55.9445C58.0725 55.9179 57.99 55.9023 57.9055 55.8987C57.7888 55.8937 57.6757 55.873 57.5694 55.8369C56.9429 55.6242 56.6063 54.9415 56.819 54.315C57.0316 53.6886 57.7143 53.3519 58.3408 53.5646C58.5006 53.6188 58.6452 53.7056 58.7709 53.8224C58.9461 53.9854 59.1805 54.07 59.4195 54.0562C59.6586 54.0426 59.8817 53.9317 60.0371 53.7496C60.3583 53.3731 60.8679 53.2324 61.3351 53.391C61.9615 53.6036 62.2982 54.2864 62.0855 54.9129C61.9831 55.2145 61.7693 55.4591 61.4835 55.6012C61.0845 55.8 60.8976 56.2662 61.0488 56.6855Z" fill="black"/>
<path d="M18.2578 28.1254C18.4972 27.6504 18.604 27.1178 18.5625 26.5744C18.5025 25.7871 18.1395 25.0704 17.5403 24.5561C16.9411 24.0419 16.1776 23.7917 15.3903 23.8518C14.4522 23.9233 13.6304 24.4244 13.1378 25.1853C12.9942 25.1752 12.8497 25.1756 12.7045 25.1866C11.9171 25.2466 11.2004 25.6096 10.686 26.2088C10.1717 26.8079 9.9216 27.5715 9.98171 28.3588C10.1053 29.9798 11.5213 31.1991 13.1411 31.0826C13.5017 31.6855 14.0651 32.1373 14.7239 32.3609C15.0923 32.486 15.4907 32.5398 15.9 32.5084C17.5253 32.3845 18.7466 30.9614 18.6227 29.3363C18.5903 28.9102 18.4641 28.4963 18.2578 28.1254ZM15.7665 30.7572C15.1853 30.8014 14.6592 30.4238 14.515 29.8594C14.4531 29.6173 14.2911 29.4131 14.0695 29.2978C14.0296 29.277 13.9885 29.2595 13.9465 29.2453C13.755 29.1803 13.5454 29.1829 13.3538 29.2552C13.2445 29.2965 13.1324 29.3218 13.0204 29.3304C12.3606 29.3807 11.7831 28.885 11.7328 28.2253C11.7085 27.9057 11.81 27.5958 12.0188 27.3527C12.2276 27.1095 12.5185 26.9621 12.8381 26.9378C13.0063 26.925 13.1733 26.9481 13.3348 27.0061C13.5606 27.0889 13.8088 27.0731 14.0232 26.9667C14.2376 26.8602 14.3994 26.6708 14.4708 26.4422C14.6185 25.9698 15.0318 25.6404 15.5238 25.6029C16.1839 25.5529 16.7612 26.0485 16.8114 26.708C16.8356 27.0257 16.735 27.3345 16.5279 27.5774C16.2386 27.9167 16.2496 28.4189 16.5535 28.7454C16.7409 28.9466 16.8509 29.1971 16.8716 29.4697C16.9219 30.1292 16.4262 30.7069 15.7665 30.7572Z" fill="black"/>
</g>
<defs>
<clipPath id="clip0">
<rect width="60" height="60" fill="white" transform="translate(19.2881) rotate(18.7517)"/>
</clipPath>
</defs>
</svg>
