<svg width="613" height="469" viewBox="0 0 613 469" fill="none" xmlns="http://www.w3.org/2000/svg">
<path d="M376.696 468.885C344.169 468.885 312.819 468.363 274.636 468.363C224.968 468.363 163.919 467.812 111.727 465.818C85.5816 464.819 57.9437 465.432 32.1869 462.872C20.9093 461.75 -16.5281 452.979 10.1403 446.391C13.7183 445.507 17.6371 445.273 21.5997 445.273C23.785 445.273 25.983 445.344 28.1454 445.416C31.7631 445.537 35.398 445.642 39.0399 445.733L38.9451 446.563L49.2714 449.105L50.2666 445.965C59.7217 446.125 69.2475 446.194 78.8184 446.194C79.3809 446.194 79.9403 446.194 80.5041 446.194L80.6193 450.524L90.3321 450.983L91.2555 446.157C144.628 445.842 199.148 443.637 251.091 442.909C265.528 442.707 279.746 442.634 293.833 442.634C311.666 442.634 329.291 442.75 346.897 442.866C364.501 442.983 382.089 443.099 399.84 443.099C417.478 443.099 435.277 442.984 453.427 442.64C470.068 442.325 486.729 442.04 503.387 441.926L504.21 454.225H513.849L514.865 441.875C516.043 441.873 517.219 441.872 518.397 441.872C527.745 441.872 537.092 441.938 546.428 442.098L549.372 452.64L559.033 450.811L557.922 442.341C568.887 442.621 579.834 443.042 590.763 443.644C598.902 444.092 609.077 445.701 609.943 450.134C610.732 454.145 602.924 456.976 595.936 458.303C579.771 461.371 566.647 464.17 549.545 464.545C510.114 465.409 466.795 467.499 427.364 468.363C409.515 468.755 392.957 468.885 376.696 468.885Z" fill="#F9EBEE"/>
<path d="M441.395 68.3245L293.419 101.296L315.364 199.783L463.339 166.812L441.395 68.3245Z" fill="#E43E54"/>
<path d="M437.991 50.9079L289.561 83.9803L293.419 101.296L441.85 68.2233L437.991 50.9079" fill="#59595B"/>
<path d="M424.254 72.1438L441.85 68.2232L437.991 50.9077L437.711 50.9701L424.254 72.1438" fill="white"/>
<path d="M289.561 83.9801L292.826 98.6343L304.215 80.7149L289.561 83.9801Z" fill="#E6E6E7"/>
<path d="M330.524 74.8536L317.066 96.0273L344.352 89.9475L357.809 68.7738L330.524 74.8536" fill="white"/>
<path d="M384.118 62.9115L370.66 84.0852L397.945 78.006L411.403 56.8316L384.118 62.9115" fill="white"/>
<path d="M304.215 80.7151L292.826 98.6345L293.419 101.296L317.067 96.0273L330.524 74.8536L304.215 80.7151Z" fill="#E43E54"/>
<path d="M357.809 68.7735L344.352 89.9473L370.66 84.0851L384.118 62.9114L357.809 68.7735" fill="#E43E54"/>
<path d="M411.403 56.8315L397.945 78.0059L424.254 72.1437L437.712 50.97L411.403 56.8315" fill="#E43E54"/>
<path d="M305.809 75.9461L289.65 83.9351L281.787 68.0323L282.045 67.9051L305.809 75.9461" fill="#E6E6E7"/>
<path d="M418.108 0.636259L424.762 14.0947L404.649 7.29008L418.108 0.636259Z" fill="white"/>
<path d="M380.487 19.236L404.252 27.2764L379.193 39.6658L355.428 31.6247L380.487 19.236Z" fill="white"/>
<path d="M331.266 43.5704L355.031 51.6109L329.972 64.0002L306.206 55.9598L331.266 43.5704Z" fill="white"/>
<path d="M404.649 7.29011L424.762 14.0948L425.97 16.539L404.252 27.2764L380.487 19.2359L404.649 7.29011" fill="#E43E54"/>
<path d="M355.428 31.6246L379.193 39.6657L355.031 51.6108L331.266 43.5704L355.428 31.6246" fill="#E43E54"/>
<path d="M306.206 55.9598L329.972 64.0002L305.809 75.946L282.044 67.905L306.206 55.9598" fill="#E43E54"/>
<path d="M293.419 101.296L281.796 68.0572L297.953 60.0626L329.189 93.3266L293.419 101.296Z" fill="#E43E54"/>
<path d="M310.488 73.4108L297.953 60.0624L315.916 70.9493L310.488 73.4114" fill="#E43E54"/>
<path d="M310.488 73.4114L297.953 60.0624L310.488 73.4108V73.4114Z" fill="#E43E54"/>
<path d="M329.189 93.3264L334.383 92.1689L329.188 93.3258" fill="#C7C7C7"/>
<path d="M329.189 93.3264L334.383 92.1689L329.189 93.3264Z" fill="#E43E54"/>
<path d="M329.189 93.3264L334.382 92.1689H334.383L329.188 93.3258" fill="#464547"/>
<path d="M329.189 93.3264L322.983 86.7178L324.179 84.8373L334.383 92.1689L329.188 93.3258" fill="#C7C7C7"/>
<path d="M322.983 86.7178L315.075 78.2962L324.179 84.8373L322.983 86.7178Z" fill="#E43E54"/>
<path d="M329.189 93.3264L315.074 78.2955L315.075 78.2961L322.983 86.7178L329.189 93.3264" fill="#E43E54"/>
<path d="M296.735 70.3626C297.058 71.6487 296.278 72.9539 294.992 73.2778C293.706 73.6017 292.4 72.8215 292.076 71.5348C291.752 70.2487 292.533 68.9435 293.82 68.6196C295.105 68.2957 296.411 69.0759 296.735 70.3626Z" fill="white"/>
<path d="M299.609 91.6178C299.933 92.9039 299.152 94.2097 297.866 94.5337C296.579 94.8576 295.275 94.0774 294.951 92.7907C294.627 91.5046 295.407 90.1987 296.693 89.8748C297.98 89.5516 299.285 90.3318 299.609 91.6178" fill="white"/>
<path d="M316.786 87.2938C317.11 88.5798 316.33 89.885 315.043 90.2089C313.757 90.5329 312.452 89.7527 312.128 88.466C311.803 87.1799 312.584 85.8747 313.87 85.5508C315.157 85.2269 316.462 86.007 316.786 87.2938" fill="white"/>
<path d="M452.095 147.983L317.551 177.961L317.327 176.96L451.872 146.981L452.095 147.983" fill="white"/>
<path d="M361.136 168.953L364.777 185.296L363.672 185.542L360.03 169.199L361.136 168.953" fill="white"/>
<path d="M409.913 158.084L413.555 174.427L412.449 174.673L408.808 158.33L409.913 158.084" fill="white"/>
<path d="M438.108 85.2104L303.564 115.189L303.317 114.084L437.862 84.105L438.108 85.2104" fill="white"/>
<path d="M443.47 207.969C442.918 206.66 441.878 205.614 440.744 204.759C436.484 201.548 430.701 200.728 425.503 201.93C423.466 202.401 421.337 203.293 420.317 205.117C419.735 206.157 419.586 207.376 419.449 208.559C419.051 211.981 418.653 215.403 418.255 218.826C418.159 219.653 418.064 220.5 418.246 221.313C418.825 223.895 421.778 225.049 424.319 225.787C424.243 226.604 424.191 227.423 424.161 228.244C424.179 228.345 425.283 234.208 432.761 231.866C433.364 231.678 433.809 231.166 433.924 230.545C434.156 229.289 434.462 228.104 435.465 227.385C436.469 226.666 437.831 226.721 438.955 226.211C441.071 225.249 441.781 222.649 442.246 220.372C442.65 218.392 443.053 216.412 443.458 214.432C443.896 212.287 444.32 209.986 443.47 207.969Z" fill="#EAC5B0"/>
<path d="M462.234 196.5C462.166 194.172 461.713 191.838 461.133 189.743C460.138 186.145 455.752 184.74 452.019 184.683C443.956 184.561 436.005 181.338 428.312 184.573C423.915 186.423 417.913 187.135 413.978 189.62C412.334 190.658 411.063 192.208 410.098 193.896C406.757 199.742 407.169 207.525 411.108 212.986C411.992 214.212 413.03 215.319 414.113 216.372C416.357 218.55 419.046 221.244 422.005 221.933C421.93 219.325 419.102 211.243 420.983 208.998C423.97 205.434 431.213 206.218 435.197 206.833C439.543 207.505 443.54 210.335 447.835 210.748C450.925 211.046 454.753 209.326 457.271 207.598C461.216 204.889 462.356 200.705 462.234 196.5" fill="#490C14"/>
<path d="M470.752 344.892L458.443 451.291H448.942L438.009 354.735L421.533 352.949L454.254 329.692L469.996 329.587L470.752 344.892Z" fill="#E43E54"/>
<path d="M448.927 451.091L448.993 451.23L452.884 459.389L458.898 459.945L462.536 457.115L458.139 451.091H448.927" fill="#490C14"/>
<path d="M389.646 332.924C386.794 333.389 385.791 335.12 385.14 338.967C384.286 344.022 396.011 336.655 398.97 341.114C402.729 346.779 402.025 358.639 403.797 367.458C404.903 372.967 402.679 380.326 402.291 385.921C401.442 398.185 398.618 437.346 397.768 449.61L407.935 451.114L436.216 356.26L440.456 338.235L428.101 331.425C420.737 332.439 412.032 335.054 404.628 334.657C400.389 334.43 396.321 332.908 392.075 332.797C391.142 332.773 390.339 332.811 389.646 332.924" fill="#E43E54"/>
<path d="M397.783 449.395L397.832 449.554L400.706 458.901L407.053 460.447L411.394 457.995L407.643 450.852L397.783 449.395" fill="#490C14"/>
<path d="M480.857 340.932C470.498 332.054 471.392 307.165 471.391 307.162L461.75 257.581C460.848 252.941 458.925 248.56 456.121 244.755L449.369 235.591L418.696 229.299C418.696 229.299 400.999 226.153 390.137 282.77C387.767 295.122 383.948 309.86 383.295 325.182C382.126 332.317 379.843 339.141 378.455 346.217C378.051 348.273 377.324 351.833 379.145 353.477C381.358 355.476 385.684 354.662 388.022 353.959C396.119 351.525 404.07 347.741 412.242 345.572C421.431 343.134 430.836 340.615 440.341 339.792C447.746 339.151 453.572 341.445 460.633 342.906C464.779 343.764 465.926 345.607 470.118 346.177C480.392 347.572 488.213 347.238 480.857 340.932" fill="#DDDAE8"/>
<path d="M415.257 219.237L405.564 238.695L454.85 252.917L456.841 235.59L415.257 219.237" fill="#F4A6B0"/>
<path d="M440.765 222.573L429.335 226.328L411.467 240.398L409.42 321.574L442.032 316.915L434.43 248.012L451.664 237.575L456.322 232.074L440.765 222.573" fill="#F4A6B0"/>
<path d="M373.589 182.337L368.916 173.818L365.188 175.656L369.337 184.44L364.93 182.25L369.816 189.053L373.949 187.665L373.589 182.337" fill="#EAC5B0"/>
<path d="M381.022 238.308L367.39 187.304L375.732 184.969L405.564 238.695L394.29 264.9L381.022 238.308" fill="#DDDAE8"/>
<path d="M468.379 241.182L472.034 232.164L476.092 233.686C476.395 233.8 476.678 237.833 476.651 238.197C476.596 238.952 474.127 247.858 473.128 247.625L468.714 246.593L468.379 241.182" fill="#EAC5B0"/>
<path d="M470.034 289.296L475.38 245.642L466.535 244.031L448.559 293.651L470.139 289.401L470.034 289.296Z" fill="#DDDAE8"/>
<path d="M39.9257 299.725L27.3664 296.27L24.576 280.943L44.1556 245.116V271.142L39.9257 299.725" fill="#ED9BA6"/>
<path d="M38.6447 448.694L38.4144 453.947L49.9688 459.66L54.1714 454.639L49.1492 449.156L39.5159 443.504L38.6447 448.694Z" fill="#490C14"/>
<path d="M98.9523 328.984L110.195 347.178L90.3321 450.983L80.6193 450.524L77.7658 343.576L80.4824 313.27L98.9523 328.984" fill="#E43E54"/>
<path d="M81.7634 454.622L92.0184 460.369L96.2369 455.366L91.2332 449.866L80.73 449.37L81.7634 454.622" fill="#490C14"/>
<path d="M86.2066 318.019L74.0928 322.559L39.9289 299.511L42.6392 329.886L50.1674 340.421C51.8277 341.578 48.1794 364.685 47.3846 372.846L38.9451 446.563L49.2714 449.104L77.1919 361.047L86.2066 318.019Z" fill="#E43E54"/>
<path d="M116.372 313.931C112.465 300.713 116.032 313.055 112.083 299.849C107.718 285.189 103.311 270.468 96.7765 256.639C94.5658 251.96 92.1158 247.395 89.4399 242.966C87.7497 240.169 84.1873 232.043 81.0424 230.866C78.4473 229.895 72.7042 231.652 69.8545 231.87C65.0786 232.235 60.2772 232.773 55.7234 234.341C54.9757 234.598 54.242 234.882 53.5223 235.195C52.7949 235.518 43.4823 239.941 42.349 255.055C41.1692 270.785 43.1355 295.953 36.8432 309.323C30.5514 322.694 25.1411 336.597 28.2402 351.471L28.2383 351.474C35.7849 346.255 44.9492 343.396 54.1281 343.44C62.9646 343.483 122.267 356.747 128.096 347.193C129.365 345.112 117.561 317.956 116.372 313.931" fill="#ED9BA6"/>
<path d="M50.8113 206.611C55.7311 193.518 75.2751 189.664 79.1658 205.26C80.3355 209.948 80.9559 214.895 79.848 219.597C78.7414 224.299 75.6658 228.732 71.1699 230.499L71.0929 230.528C71.217 231.764 71.3405 233 71.4645 234.237C71.4913 234.503 71.511 234.796 71.3538 235.011C71.1744 235.257 70.8358 235.31 70.5342 235.343C69.0565 235.504 67.5802 235.665 66.1038 235.826C65.372 235.905 64.6096 235.982 63.9179 235.73C62.4034 235.178 61.8389 233.315 61.8351 231.704C61.8344 231.318 61.8529 230.929 61.8739 230.54C51.8728 226.643 47.5964 215.17 50.8113 206.611Z" fill="#B97262"/>
<path d="M78.4544 188.03C81.7883 188.029 84.0957 191.605 86.8588 193.713C89.1574 195.466 91.9421 196.254 94.3673 197.785C96.7918 199.316 98.9873 202.085 98.5978 205.086C101.431 204.108 104.488 203.127 107.35 204.132C110.213 205.139 112.427 209.063 110.821 211.789C109.384 214.229 105.906 214.338 104.398 216.726C102.014 220.505 105.903 227.501 102.215 229.695C101.328 230.222 100.229 230.218 99.3532 230.766C98.2656 231.447 97.7445 232.817 97.1285 234.012C94.3329 239.428 88.0272 242.302 82.459 240.695C79.1728 238.515 76.8641 234.677 76.1832 230.576C75.3623 225.631 78.1317 224.359 79.2155 219.994C80.3997 215.223 79.6221 209.868 77.1333 205.657C75.5137 202.916 72.9893 200.386 70.0327 199.655C68.8313 199.357 69.0636 200.431 67.8322 199.285C67.3034 198.792 66.7281 197.142 66.6696 196.383C70.3433 194.232 74.0673 188.031 78.4544 188.03" fill="#490C14"/>
<path d="M42.2427 189.065C41.5243 189.154 40.7957 189.15 40.0683 189.146C39.0202 189.14 37.974 189.134 36.966 189.408C34.4008 190.106 34.1762 192.627 33.172 194.697C32.0603 196.989 30.484 200.052 28.6207 201.686C27.278 202.864 25.5649 203.394 24.0192 204.227C22.4728 205.06 20.9653 206.404 20.7165 208.282C20.4804 210.062 21.4375 211.833 21.349 213.632C21.1689 216.307 20.5109 217.593 20.9246 220.416C21.1384 221.872 21.3891 223.419 22.2947 224.525C23.4872 225.983 25.4548 226.25 27.2227 226.218C28.9898 226.186 30.8436 225.973 32.4599 226.797C35.9644 228.586 34.7216 232.214 35.2389 235.487C36.0267 240.467 41.131 244.064 45.6034 242.999C49.3955 242.096 52.0835 238.247 52.5315 234.122C52.7555 232.056 52.2222 230.02 52.4685 227.956C52.7058 225.965 54.2306 223.385 52.6677 221.545C52.2871 221.097 51.7564 220.812 51.4274 220.317C51.162 219.916 51.0557 219.416 51.0157 218.927C50.8763 217.232 51.5025 215.499 52.6549 214.388C53.4835 213.589 54.5755 213.078 55.1628 212.053C55.8355 210.879 55.6662 209.365 55.7884 207.975C56.083 204.616 58.3898 201.621 61.354 200.748C63.307 200.172 65.0284 199.917 66.8178 198.865C67.0896 198.705 71.2017 196.034 71.1928 196.741C71.2087 195.509 70.6608 194.347 70.09 193.272C69.152 191.503 68.0785 189.758 66.5652 188.557C63.8346 186.391 62.2157 187.657 60.5955 188.923C59.3138 189.926 58.0309 190.928 56.1957 190.229C55.1934 189.847 54.5545 188.782 53.7062 188.077C52.1045 186.745 49.8842 186.806 47.9643 187.341C46.0431 187.875 44.2167 188.819 42.2427 189.065" fill="#490C14"/>
<path d="M62.3581 272.252L58.4782 273.675L48.6044 246.75C47.69 244.535 47.5621 239.436 53.5 235.565L67.913 225.371L70.2923 228.685L55.7756 238.951C51.12 241.97 52.415 245.153 52.4283 245.184L52.4684 245.284L62.3581 272.252" fill="#D67086"/>
<path d="M49.0003 247.84L48.719 247.074L48.7222 247.073L49.0034 247.839L49.0003 247.84Z" fill="#F26C7E"/>
<path d="M49.0034 247.839L48.7222 247.072L52.5308 245.465L52.8121 246.231L49.0034 247.839Z" fill="#C9697E"/>
<path d="M48.215 245.298C48.1774 245.041 48.152 244.769 48.1399 244.485L48.1424 244.484C48.1539 244.769 48.18 245.041 48.2175 245.298H48.215Z" fill="#F26C7E"/>
<path d="M48.2175 245.298C48.18 245.041 48.1539 244.769 48.1425 244.484L52.2546 244.259C52.2712 244.64 52.3399 244.922 52.3851 245.069L48.2175 245.298" fill="#C9697E"/>
<path d="M48.2857 242.593L48.2838 242.593C48.334 242.331 48.3964 242.064 48.4753 241.795L48.4778 241.795C48.3989 242.066 48.3359 242.332 48.2857 242.593Z" fill="#F26C7E"/>
<path d="M52.261 243.786L48.2856 242.593C48.3359 242.332 48.3989 242.066 48.4778 241.795L52.4004 242.972C52.3208 243.266 52.2795 243.538 52.261 243.786" fill="#C9697E"/>
<path d="M49.2332 239.968C49.2796 239.883 49.328 239.797 49.3776 239.711C49.328 239.797 49.2796 239.883 49.2332 239.968Z" fill="#272745"/>
<path d="M52.5728 242.459L49.2332 239.968C49.2796 239.883 49.328 239.797 49.3776 239.711C49.4661 239.561 49.5596 239.41 49.6589 239.259L52.9432 241.709C52.7898 241.967 52.6683 242.218 52.5728 242.459Z" fill="#C9697E"/>
<path d="M53.5693 240.835C53.6616 240.727 53.759 240.617 53.8633 240.507L53.864 240.508C53.7602 240.617 53.6616 240.727 53.5693 240.835" fill="#F26C7E"/>
<path d="M51.3802 237.222C51.4503 237.156 51.5209 237.089 51.5934 237.024V237.024C51.5215 237.09 51.4503 237.156 51.3802 237.222Z" fill="#272745"/>
<path d="M53.3066 241.165L50.9896 237.609C51.1149 237.479 51.2447 237.35 51.3803 237.222C51.4503 237.156 51.5216 237.09 51.5935 237.024L53.8634 240.507C53.759 240.617 53.6616 240.727 53.5694 240.836C53.4758 240.946 53.388 241.056 53.3066 241.165" fill="#C9697E"/>
<path d="M108.826 342.584L85.7592 265.571L37.8512 283.14L70.3936 356.678C70.3936 356.678 89.8796 355.688 108.826 342.584Z" fill="#D67086"/>
<path d="M87.121 259.245L85.1521 259.966L83.9462 256.678L33.4858 275.183L34.6917 278.471L73.9725 264.067L32.7234 279.194L34.607 284.33L89.004 264.381L87.121 259.245Z" fill="white"/>
<path d="M37.8518 283.14L42.8791 281.296L85.7592 265.571L87.7058 272.069C87.2152 272.029 86.6851 272.009 86.1168 272.009C72.5546 272.009 38.0096 283.089 37.8518 283.14" fill="#C9697E"/>
<path d="M37.8512 283.14L42.8791 281.296L37.8518 283.14C37.8512 283.14 37.8512 283.14 37.8512 283.14Z" fill="#F0F0F0"/>
<path d="M96.7454 349.46C100.665 347.654 104.758 345.398 108.826 342.584C104.758 345.398 100.665 347.654 96.7454 349.46ZM108.826 342.584L102.702 322.136L108.826 342.584Z" fill="#F26C7E"/>
<path d="M70.3936 356.678C70.3936 356.678 82.0225 349.394 88.0876 326.179L102.702 322.136L108.826 342.584C104.758 345.398 100.665 347.654 96.7454 349.46C82.41 356.068 70.3936 356.678 70.3936 356.678V356.678ZM88.7616 323.428L101.671 318.695L88.7616 323.428Z" fill="#C9697E"/>
<path d="M91.944 286.219L91.3127 284.112C91.3127 284.112 91.3127 284.112 91.3127 284.112L91.944 286.219" fill="#F26C7E"/>
<path d="M91.4432 286.403C91.405 285.646 91.3611 284.883 91.3127 284.111L91.944 286.219L91.4432 286.403" fill="#C9697E"/>
<path d="M102.496 318.392L92.8636 285.882L45.562 303.228L59.387 334.201L102.496 318.392Z" fill="white"/>
<path d="M86.3969 324.296C95.7425 307.439 92.8636 285.882 92.8636 285.882L102.496 318.392L86.3969 324.296Z" fill="#F0F0F0"/>
<path d="M102.702 322.136L101.671 318.695L102.702 322.136Z" fill="#F26C7E"/>
<path d="M60.2995 333.866L84.9847 324.814L88.7615 323.428C88.5458 324.369 88.3205 325.286 88.0876 326.179L60.2989 333.867" fill="#C9697E"/>
<path d="M102.702 322.136L101.671 318.695L102.702 322.136Z" fill="#7C98D4"/>
<path d="M88.0876 326.179C88.3206 325.286 88.5458 324.369 88.7616 323.429L101.671 318.695L102.702 322.136L88.0876 326.179" fill="#BD6377"/>
<path d="M60.2989 333.867L84.9847 324.814L60.2995 333.866L60.2989 333.867" fill="#F0F0F0"/>
<path d="M85.1521 259.967L83.9462 256.679C83.9462 256.679 83.9462 256.679 83.9468 256.678L85.1521 259.967" fill="#F26C7E"/>
<path d="M61.3394 268.699C61.3394 268.699 81.3689 261.278 83.9462 256.679L85.1521 259.967L61.3394 268.699" fill="#F0F0F0"/>
<path d="M95.7406 240.811L94.9457 231.127L99.0694 230.607L101.082 237.118L102.918 235.967L102.589 244.336L98.3751 245.456L95.7406 240.811" fill="#B97262"/>
<path d="M118.032 282.723L103.651 241.539L95.4026 244.188L100.828 296.312L118.167 282.768L118.032 282.723" fill="#ED9BA6"/>
<path d="M60.5955 303.134L70.0003 305.577L71.2189 301.603L65.1499 298.504L66.5983 296.892L58.2963 295.782L56.4712 299.742L60.5955 303.134" fill="#B97262"/>
<path d="M61.2331 295.216L38.3781 284.33L39.8748 299.808L57.21 302.888L61.2331 295.216Z" fill="#ED9BA6"/>
<path d="M568.607 306.167L573.331 285.533L560.525 246.782L543.347 235.988L562.157 299.532L568.607 306.167" fill="#3A332D"/>
<path d="M503.736 234.466L505.611 224.969L501.826 223.917L499.186 230.111L497.609 228.731L496.936 237.072L500.734 238.729L503.736 234.466" fill="#EAC5B0"/>
<path d="M496.274 234.161L478.037 273.125L477.983 273.137L497.471 288.725L503.655 237.858L496.274 234.161" fill="#E43E54"/>
<path d="M504.618 453.268L498.024 462.986L503.148 465.182L512.662 458.229L513.394 450.544L504.618 453.268Z" fill="#490C14"/>
<path d="M550.151 451.168L545.479 461.943L550.922 463.147L558.977 454.546L558.267 446.859L550.151 451.168" fill="#490C14"/>
<path d="M493.267 337.971L498.738 372.366L504.21 454.225H513.849L520.362 375.117L525.312 328.684C525.312 328.684 496.394 332.812 493.267 337.971Z" fill="#BABCBE"/>
<path d="M516.786 340.489L537.91 411.595L549.372 452.64L559.033 450.811L553.495 408.573V326.296C553.495 326.296 518.96 334.827 516.786 340.489" fill="#BABCBE"/>
<path d="M518.185 210.288C518.514 209.647 518.893 209.034 519.344 208.472C520.522 207.004 522.146 205.94 523.882 205.211C529.27 202.948 535.903 204.02 540.305 207.862C545.959 212.797 547.412 222.392 543.5 228.85C542.795 230.013 541.801 230.971 540.717 231.769C539.267 232.835 537.63 233.61 535.913 234.086C536.392 235.622 537.01 237.113 537.759 238.537C534.434 238.914 531.109 239.291 527.785 239.668C527.565 237.757 527.346 235.846 527.127 233.935C526.23 233.65 525.357 233.286 524.529 232.826C517.517 228.934 516.408 221.824 517.258 212.464C517.33 211.68 517.825 210.989 518.185 210.288" fill="#EAC5B0"/>
<path d="M535.151 211.295C530.822 210.555 526.558 211.014 521.538 212.012C520.859 212.147 520.139 212.316 519.659 212.815C519.114 213.382 519.013 214.23 518.94 215.013C518.643 218.228 518.964 221.503 518.667 224.718C518.72 224.145 514.905 220.73 514.463 219.914C513.215 217.606 512.649 214.973 511.571 212.693C510.541 210.513 509.379 209.134 509.295 206.537C509.213 204.029 509.842 201.557 510.523 199.142C511.085 197.144 511.786 195.014 513.463 193.789C515.061 192.621 517.191 192.546 519.169 192.629C526.797 192.952 534.336 195.015 541.094 198.559C543.616 199.882 548.047 201.79 549.169 204.484C549.906 206.251 550.368 209.485 550.669 212.613L550.391 222.355L543.781 228.424L541.905 213.438C539.565 212.357 537.349 211.672 535.151 211.295" fill="#490C14"/>
<path d="M518.124 238.056L543.347 235.988C543.347 235.988 550.982 248.184 559.503 286.169C567.939 323.775 566.822 363.384 566.822 363.384C566.822 363.384 532.86 350.443 483.966 355.964L498.211 263.409L518.124 238.056Z" fill="#E43E54"/>
<path d="M610.363 270.312C611.241 269.24 611.852 267.929 612.081 266.461C612.533 263.605 611.426 260.865 609.389 259.099C609.536 258.721 609.637 258.324 609.707 257.909C610.229 254.586 607.957 251.466 604.636 250.942C604.317 250.893 603.999 250.869 603.687 250.868C602.695 247.731 600.003 245.26 596.528 244.712C594.568 244.404 592.659 244.756 591.017 245.601C591.132 245.234 591.221 244.853 591.285 244.462C591.978 240.055 588.968 235.919 584.562 235.225C581.412 234.728 578.401 236.125 576.686 238.572C575.262 236.636 573.109 235.241 570.554 234.838C568.691 234.545 566.87 234.819 565.262 235.533C564.123 233.323 561.983 231.667 559.338 231.25C556.161 230.75 553.126 232.174 551.419 234.659C550.88 234.393 550.291 234.202 549.666 234.104C546.342 233.58 543.223 235.85 542.699 239.173C542.624 239.65 542.608 240.122 542.643 240.583C541.501 239.508 540.036 238.753 538.37 238.491C533.963 237.797 529.828 240.806 529.133 245.213C528.95 246.375 529.027 247.517 529.317 248.584C526.025 249.176 523.317 251.787 522.767 255.277C522.702 255.686 522.671 256.092 522.668 256.494L610.363 270.312" fill="#D67086"/>
<path d="M611.947 267.125C611.947 267.124 611.954 267.124 611.954 267.123C611.954 267.124 611.947 267.124 611.947 267.125ZM611.96 267.091C611.96 267.088 611.96 267.086 611.96 267.084C611.96 267.086 611.96 267.088 611.96 267.091ZM611.966 267.056C611.966 267.053 611.966 267.051 611.966 267.047C611.966 267.051 611.966 267.053 611.966 267.056ZM611.973 267.021C611.973 267.017 611.979 267.015 611.979 267.012C611.979 267.015 611.973 267.018 611.973 267.021ZM611.979 266.996C611.979 266.992 611.985 266.988 611.985 266.984C611.985 266.988 611.979 266.992 611.979 266.996ZM611.985 266.961C611.992 266.956 611.992 266.953 611.992 266.948C611.992 266.953 611.992 266.956 611.985 266.961ZM611.998 266.927C611.998 266.922 611.998 266.917 611.998 266.912C611.998 266.917 611.998 266.922 611.998 266.927ZM612.005 266.897C612.005 266.89 612.005 266.883 612.005 266.877C612.005 266.883 612.005 266.89 612.005 266.897ZM612.011 266.864C612.011 266.856 612.011 266.848 612.017 266.841C612.011 266.848 612.011 266.856 612.011 266.864ZM612.017 266.83C612.017 266.822 612.017 266.814 612.024 266.806C612.017 266.814 612.017 266.822 612.017 266.83ZM612.024 266.796C612.024 266.788 612.024 266.781 612.03 266.773C612.024 266.781 612.024 266.788 612.024 266.796ZM612.03 266.767C612.03 266.758 612.03 266.749 612.036 266.741C612.03 266.749 612.03 266.758 612.03 266.767ZM612.036 266.731C612.036 266.722 612.036 266.714 612.043 266.705C612.036 266.714 612.036 266.723 612.036 266.731ZM612.043 266.697C612.043 266.688 612.043 266.679 612.049 266.669C612.043 266.679 612.043 266.688 612.043 266.697ZM612.049 266.662C612.049 266.653 612.049 266.643 612.055 266.634C612.049 266.643 612.049 266.653 612.049 266.662ZM612.055 266.63C612.055 266.62 612.055 266.611 612.062 266.602C612.055 266.611 612.055 266.62 612.055 266.63ZM612.062 266.597C612.062 266.587 612.062 266.578 612.068 266.568C612.062 266.578 612.062 266.587 612.062 266.597ZM612.068 266.562C612.068 266.552 612.068 266.542 612.075 266.533C612.068 266.542 612.068 266.552 612.068 266.562ZM612.075 266.527C612.075 266.517 612.075 266.507 612.075 266.497C612.075 266.507 612.075 266.517 612.075 266.527ZM612.081 266.493C612.081 266.482 612.081 266.472 612.081 266.461C612.087 266.45 612.087 266.44 612.087 266.429C612.087 266.44 612.087 266.45 612.081 266.461C612.081 266.472 612.081 266.482 612.081 266.493ZM612.087 266.42C612.094 266.412 612.094 266.405 612.094 266.398C612.094 266.405 612.094 266.412 612.087 266.42ZM612.094 266.387C612.094 266.38 612.094 266.373 612.1 266.366C612.094 266.373 612.094 266.38 612.094 266.387ZM612.1 266.354C612.1 266.347 612.1 266.34 612.1 266.333C612.1 266.34 612.1 266.347 612.1 266.354ZM612.106 266.322C612.106 266.315 612.106 266.308 612.106 266.301C612.106 266.308 612.106 266.315 612.106 266.322ZM612.106 266.291C612.106 266.282 612.113 266.275 612.113 266.268C612.113 266.275 612.106 266.283 612.106 266.291ZM612.113 266.258C612.113 266.249 612.113 266.239 612.119 266.229C612.113 266.239 612.113 266.249 612.113 266.258ZM612.119 266.227C612.119 266.216 612.119 266.205 612.119 266.195C612.119 266.205 612.119 266.216 612.119 266.227ZM612.119 266.19C612.119 266.181 612.125 266.172 612.125 266.162C612.125 266.172 612.119 266.181 612.119 266.19ZM612.125 266.154C612.125 266.146 612.125 266.139 612.125 266.131C612.125 266.139 612.125 266.146 612.125 266.154ZM612.132 266.12C612.132 266.113 612.132 266.106 612.132 266.099C612.132 266.106 612.132 266.113 612.132 266.12ZM612.132 266.088C612.132 266.081 612.132 266.074 612.138 266.067C612.132 266.074 612.132 266.081 612.132 266.088ZM612.138 266.055C612.138 266.049 612.138 266.042 612.138 266.035C612.138 266.042 612.138 266.049 612.138 266.055ZM612.138 266.023C612.138 266.016 612.145 266.008 612.145 266.001C612.145 266.009 612.138 266.016 612.138 266.023ZM612.145 265.992C612.145 265.983 612.145 265.973 612.145 265.964C612.145 265.973 612.145 265.983 612.145 265.992ZM612.145 265.96C612.145 265.95 612.151 265.939 612.151 265.929C612.151 265.939 612.145 265.95 612.145 265.96ZM612.151 265.918C612.151 265.911 612.151 265.904 612.151 265.897C612.151 265.904 612.151 265.911 612.151 265.918ZM612.151 265.885C612.151 265.878 612.157 265.872 612.157 265.866C612.157 265.873 612.151 265.878 612.151 265.885ZM612.157 265.852C612.157 265.847 612.157 265.841 612.157 265.835C612.157 265.841 612.157 265.847 612.157 265.852ZM612.157 265.82C612.157 265.815 612.157 265.81 612.157 265.804C612.157 265.81 612.157 265.815 612.157 265.82ZM612.164 265.788C612.164 265.783 612.164 265.778 612.164 265.773C612.164 265.778 612.164 265.783 612.164 265.788ZM612.164 265.757C612.164 265.752 612.164 265.747 612.164 265.742C612.164 265.747 612.164 265.752 612.164 265.757ZM612.164 265.725C612.164 265.723 612.164 265.721 612.164 265.719C612.164 265.721 612.164 265.723 612.164 265.725ZM612.17 265.669C612.17 265.668 612.17 265.667 612.17 265.666C612.17 265.667 612.17 265.668 612.17 265.669ZM612.17 265.644C612.17 265.641 612.17 265.638 612.17 265.635C612.17 265.638 612.17 265.641 612.17 265.644ZM612.17 265.614C612.17 265.61 612.17 265.608 612.17 265.605C612.17 265.608 612.17 265.61 612.17 265.614ZM612.176 265.583C612.176 265.58 612.176 265.577 612.176 265.574C612.176 265.577 612.176 265.58 612.176 265.583ZM612.176 265.553C612.176 265.55 612.176 265.547 612.176 265.545C612.176 265.547 612.176 265.55 612.176 265.553ZM612.176 265.521C612.176 265.519 612.176 265.518 612.176 265.517C612.176 265.518 612.176 265.519 612.176 265.521Z" fill="#F0F0F0"/>
<path d="M611.037 269.347L537.267 257.723L537.311 257.568C537.311 257.568 564.151 261.673 587.648 261.673C595.994 261.672 603.91 261.155 610.064 259.753C611.464 261.283 612.265 263.337 612.176 265.517C612.176 265.518 612.176 265.519 612.176 265.521C612.176 265.529 612.176 265.537 612.176 265.545C612.176 265.547 612.176 265.55 612.176 265.553C612.176 265.56 612.176 265.567 612.176 265.574C612.176 265.577 612.176 265.58 612.176 265.583C612.17 265.59 612.17 265.598 612.17 265.605C612.17 265.608 612.17 265.61 612.17 265.614C612.17 265.621 612.17 265.628 612.17 265.635C612.17 265.638 612.17 265.641 612.17 265.644C612.17 265.651 612.17 265.659 612.17 265.666C612.17 265.667 612.17 265.668 612.17 265.669C612.17 265.686 612.164 265.702 612.164 265.719C612.164 265.721 612.164 265.723 612.164 265.725C612.164 265.731 612.164 265.736 612.164 265.742C612.164 265.747 612.164 265.752 612.164 265.757C612.164 265.763 612.164 265.768 612.164 265.773C612.164 265.778 612.164 265.783 612.164 265.788C612.157 265.794 612.157 265.799 612.157 265.804C612.157 265.81 612.157 265.815 612.157 265.82C612.157 265.825 612.157 265.83 612.157 265.835C612.157 265.841 612.157 265.847 612.157 265.852C612.157 265.857 612.157 265.862 612.157 265.866C612.157 265.872 612.151 265.878 612.151 265.885C612.151 265.889 612.151 265.893 612.151 265.897C612.151 265.904 612.151 265.911 612.151 265.918C612.151 265.922 612.151 265.925 612.151 265.929C612.151 265.939 612.145 265.95 612.145 265.96C612.145 265.962 612.145 265.962 612.145 265.964C612.145 265.973 612.145 265.983 612.145 265.992C612.145 265.995 612.145 265.998 612.145 266.001C612.145 266.008 612.138 266.016 612.138 266.023C612.138 266.027 612.138 266.031 612.138 266.035C612.138 266.042 612.138 266.049 612.138 266.055C612.138 266.059 612.138 266.064 612.138 266.067C612.132 266.074 612.132 266.081 612.132 266.088C612.132 266.092 612.132 266.095 612.132 266.099C612.132 266.106 612.132 266.113 612.132 266.12C612.132 266.124 612.125 266.127 612.125 266.131C612.125 266.139 612.125 266.146 612.125 266.154C612.125 266.156 612.125 266.16 612.125 266.162C612.125 266.172 612.119 266.181 612.119 266.19C612.119 266.191 612.119 266.193 612.119 266.195C612.119 266.205 612.119 266.216 612.119 266.227C612.119 266.228 612.119 266.228 612.119 266.229C612.113 266.239 612.113 266.249 612.113 266.258C612.113 266.261 612.113 266.265 612.113 266.268C612.113 266.275 612.106 266.282 612.106 266.291C612.106 266.294 612.106 266.298 612.106 266.301C612.106 266.308 612.106 266.315 612.106 266.322C612.106 266.326 612.1 266.33 612.1 266.333C612.1 266.34 612.1 266.347 612.1 266.354C612.1 266.358 612.1 266.362 612.1 266.366C612.094 266.373 612.094 266.38 612.094 266.387C612.094 266.39 612.094 266.394 612.094 266.398C612.094 266.405 612.094 266.412 612.087 266.42C612.087 266.423 612.087 266.426 612.087 266.429C612.087 266.44 612.087 266.45 612.081 266.461C612.081 266.472 612.081 266.482 612.081 266.493C612.081 266.494 612.075 266.496 612.075 266.497C612.075 266.507 612.075 266.517 612.075 266.527C612.075 266.529 612.075 266.531 612.075 266.533C612.068 266.542 612.068 266.552 612.068 266.562C612.068 266.564 612.068 266.566 612.068 266.568C612.062 266.578 612.062 266.587 612.062 266.597C612.062 266.599 612.062 266.6 612.062 266.602C612.055 266.611 612.055 266.62 612.055 266.63C612.055 266.631 612.055 266.632 612.055 266.634C612.049 266.643 612.049 266.653 612.049 266.662C612.049 266.665 612.049 266.667 612.049 266.669C612.043 266.679 612.043 266.688 612.043 266.697C612.043 266.699 612.043 266.702 612.043 266.705C612.036 266.714 612.036 266.722 612.036 266.731C612.036 266.734 612.036 266.737 612.036 266.741C612.03 266.749 612.03 266.758 612.03 266.767C612.03 266.769 612.03 266.771 612.03 266.773C612.024 266.781 612.024 266.788 612.024 266.796C612.024 266.799 612.024 266.802 612.024 266.806C612.017 266.814 612.017 266.822 612.017 266.83C612.017 266.834 612.017 266.837 612.017 266.841C612.011 266.848 612.011 266.856 612.011 266.864C612.011 266.869 612.005 266.872 612.005 266.877C612.005 266.883 612.005 266.89 612.005 266.897C611.998 266.902 611.998 266.907 611.998 266.912C611.998 266.917 611.998 266.922 611.998 266.927C611.992 266.934 611.992 266.941 611.992 266.948C611.992 266.953 611.992 266.956 611.985 266.961C611.985 266.968 611.985 266.976 611.985 266.984C611.985 266.988 611.979 266.992 611.979 266.996C611.979 267.001 611.979 267.007 611.979 267.012C611.979 267.015 611.973 267.017 611.973 267.021C611.973 267.03 611.973 267.038 611.966 267.047C611.966 267.051 611.966 267.053 611.966 267.056C611.966 267.065 611.96 267.075 611.96 267.084C611.96 267.086 611.96 267.088 611.96 267.091C611.954 267.101 611.954 267.112 611.954 267.123C611.954 267.124 611.947 267.124 611.947 267.125C611.756 267.924 611.445 268.67 611.037 269.347" fill="#C9697E"/>
<path d="M537.844 260.955L529.796 342.179C531.861 342.814 534.125 343.475 536.56 344.134L546.576 262.331L537.844 260.955Z" fill="#ED9BA6"/>
<path d="M570.216 266.056L557.215 348.564C559.567 348.931 561.973 349.255 564.417 349.526L580.229 267.633L570.216 266.056Z" fill="#ED9BA6"/>
<path d="M523.044 258.623L516.72 337.614C516.72 337.614 519.085 338.598 523.187 340.021L531.126 259.897L523.044 258.623Z" fill="#ED9BA6"/>
<path d="M553.287 263.388L543.195 345.813C545.539 346.364 547.99 346.896 550.527 347.391L563.509 264.999L553.287 263.388Z" fill="#ED9BA6"/>
<path d="M610.681 272.432L602.599 271.158L585.426 350.251C587.901 350.125 590.375 349.915 592.837 349.607L610.681 272.432" fill="#ED9BA6"/>
<path d="M586.94 268.691L571.217 350.124C573.608 350.277 576.022 350.371 578.447 350.393L595.879 270.1L586.94 268.691" fill="#ED9BA6"/>
<path d="M563.508 264.999L550.527 347.391C552.697 347.813 554.931 348.208 557.215 348.564L570.216 266.056L563.508 264.999Z" fill="white"/>
<path d="M531.127 259.897L523.187 340.02C525.051 340.666 527.273 341.403 529.796 342.179L537.844 260.955L531.127 259.897" fill="white"/>
<path d="M546.576 262.331L536.56 344.134C538.653 344.701 540.872 345.267 543.195 345.813L553.287 263.388L546.576 262.331" fill="white"/>
<path d="M595.879 270.1L578.447 350.393C580.767 350.414 583.097 350.37 585.426 350.251L602.599 271.158L595.879 270.1" fill="white"/>
<path d="M580.229 267.633L564.417 349.526C566.655 349.774 568.925 349.977 571.217 350.124L586.94 268.691L580.229 267.633" fill="white"/>
<path d="M612.921 269.644L521.771 255.282L521.288 258.346L612.437 272.708L612.921 269.644Z" fill="white"/>
<path d="M595.294 272.794L595.879 270.1L589.356 269.072L610.681 272.432L602.599 271.158L595.879 270.1L595.294 272.794ZM579.898 269.346L580.229 267.633L577.325 267.176L584.038 268.234L580.229 267.633L579.898 269.346Z" fill="#F0F0F0"/>
<path d="M579.898 269.346L570.045 267.14L570.216 266.056L577.325 267.176L580.229 267.633L579.898 269.346" fill="#F26C7E"/>
<path d="M563.405 265.654L553.287 263.388L563.508 264.999L563.405 265.654" fill="#F26C7E"/>
<path d="M609.841 276.051L601.918 274.277L602.599 271.158L610.681 272.432L609.841 276.051Z" fill="#F26C7E"/>
<path d="M595.294 272.794L586.527 270.831L586.94 268.691L589.356 269.072L595.879 270.1L595.294 272.794" fill="#F26C7E"/>
<path d="M570.045 267.14L563.405 265.654L563.508 264.999L570.216 266.056L570.045 267.14Z" fill="#F0F0F0"/>
<path d="M601.918 274.277L595.294 272.794L595.879 270.1L602.599 271.158L601.918 274.277" fill="#F0F0F0"/>
<path d="M586.527 270.831L579.898 269.346L580.229 267.633L584.038 268.234L586.94 268.691L586.527 270.831" fill="#F0F0F0"/>
<path d="M578.447 350.393C576.022 350.371 573.608 350.277 571.217 350.124C569.719 350.028 568.231 349.908 566.755 349.767C568.231 349.908 569.719 350.028 571.217 350.124C573.608 350.277 576.022 350.371 578.447 350.393L582.37 332.325L578.447 350.393ZM587.943 350.093C588.987 350.015 590.031 349.921 591.075 349.811C590.031 349.922 588.987 350.015 587.943 350.093Z" fill="#F0F0F0"/>
<path d="M566.755 349.767C565.972 349.693 565.192 349.612 564.417 349.527L566.357 339.475L564.417 349.527C565.192 349.612 565.972 349.693 566.755 349.767ZM557.215 348.564C554.931 348.208 552.697 347.813 550.527 347.391C547.99 346.896 545.539 346.364 543.194 345.813C543.104 345.792 543.013 345.77 542.923 345.749C543.013 345.77 543.104 345.792 543.194 345.813C545.539 346.364 547.99 346.896 550.527 347.391L551.822 339.168L550.527 347.391C552.697 347.813 554.931 348.208 557.215 348.564ZM536.56 344.134C536.224 344.044 535.893 343.953 535.564 343.862C535.893 343.953 536.224 344.044 536.56 344.134L537.135 339.436L536.56 344.134ZM535.537 343.855C535.355 343.804 535.174 343.754 534.994 343.704C535.174 343.754 535.355 343.804 535.537 343.855ZM534.729 343.629C534.681 343.616 534.632 343.602 534.584 343.589C534.632 343.602 534.681 343.616 534.729 343.629ZM534.394 343.535C534.346 343.522 534.298 343.508 534.25 343.494C534.298 343.508 534.346 343.522 534.394 343.535ZM534.196 343.479C534.166 343.471 534.136 343.462 534.106 343.454C534.136 343.462 534.166 343.471 534.196 343.479ZM534.019 343.429C534.006 343.425 533.994 343.421 533.981 343.418C533.994 343.421 534.006 343.425 534.019 343.429ZM528.028 341.627C526.826 341.245 525.705 340.876 524.671 340.528C525.705 340.876 526.827 341.245 528.028 341.627Z" fill="#32377D"/>
<path d="M536.56 344.134C536.224 344.043 535.893 343.952 535.564 343.861C535.555 343.859 535.546 343.856 535.537 343.854C535.355 343.804 535.174 343.754 534.994 343.704C534.905 343.679 534.817 343.654 534.729 343.629C534.681 343.616 534.632 343.602 534.584 343.588C534.521 343.571 534.458 343.553 534.394 343.535C534.346 343.522 534.298 343.508 534.25 343.494C534.232 343.489 534.214 343.484 534.196 343.479C534.166 343.471 534.136 343.462 534.107 343.454C534.077 343.445 534.048 343.437 534.019 343.429C534.006 343.425 533.994 343.421 533.981 343.418C532.51 342.999 531.113 342.584 529.797 342.179C529.796 342.179 529.796 342.179 529.796 342.179L530.101 339.094C532.265 339.243 534.627 339.365 537.135 339.436L536.56 344.134" fill="#F26C7E"/>
<path d="M564.417 349.526C561.973 349.255 559.567 348.931 557.215 348.564L558.801 338.498H558.801C561.463 338.165 564.142 337.736 566.798 337.192L566.358 339.475L564.417 349.526" fill="#F26C7E"/>
<path d="M523.187 340.021C519.205 338.64 516.86 337.672 516.726 337.616C516.722 337.614 516.72 337.614 516.72 337.614C516.72 337.614 519.2 338.045 523.338 338.496L523.187 340.021" fill="#F26C7E"/>
<path d="M550.527 347.391C547.99 346.896 545.539 346.364 543.195 345.813L543.97 339.486C546.51 339.45 549.141 339.351 551.822 339.168C551.822 339.168 551.822 339.168 551.822 339.168L550.527 347.391Z" fill="#F26C7E"/>
<path d="M585.426 350.251L590.266 327.958C593.983 325.431 597.285 322.384 599.977 318.718L592.837 349.607C592.245 349.68 591.66 349.748 591.074 349.811C590.031 349.921 588.987 350.015 587.943 350.093C587.104 350.156 586.265 350.208 585.426 350.251" fill="#F26C7E"/>
<path d="M578.447 350.393C576.022 350.371 573.608 350.277 571.217 350.124L574.063 335.383C576.917 334.532 579.702 333.521 582.37 332.325L578.447 350.393Z" fill="#F26C7E"/>
<path d="M557.215 348.564C554.932 348.208 552.697 347.813 550.527 347.391L551.822 339.168C554.12 339.01 556.454 338.791 558.801 338.498L557.215 348.564Z" fill="#F0F0F0"/>
<path d="M529.796 342.179C529.189 341.993 528.599 341.808 528.028 341.627C526.827 341.245 525.705 340.876 524.671 340.528C524.155 340.353 523.659 340.184 523.187 340.02L523.338 338.496C525.262 338.705 527.544 338.918 530.101 339.095L529.796 342.179" fill="#F0F0F0"/>
<path d="M543.195 345.813C543.104 345.792 543.013 345.77 542.923 345.749C540.699 345.223 538.571 344.679 536.56 344.134L537.135 339.436C538.623 339.478 540.162 339.501 541.744 339.501C542.477 339.501 543.219 339.496 543.969 339.486C543.97 339.486 543.97 339.486 543.97 339.486L543.195 345.813" fill="#F0F0F0"/>
<path d="M579.561 350.398C579.189 350.398 578.818 350.396 578.447 350.393L582.37 332.325C585.148 331.08 587.799 329.634 590.266 327.958L585.426 350.251C583.469 350.351 581.513 350.398 579.561 350.398Z" fill="#F0F0F0"/>
<path d="M571.217 350.124C569.719 350.028 568.231 349.908 566.754 349.767C565.972 349.693 565.192 349.612 564.417 349.526L566.357 339.475L566.798 337.192C569.248 336.692 571.679 336.093 574.062 335.383L571.217 350.124Z" fill="#F0F0F0"/>
<path d="M599.086 307.724L589.547 309.297L588.593 305.479L594.848 303.036L593.512 301.414L601.861 301.006L603.42 304.857L599.086 307.724Z" fill="#EAC5B0"/>
<path d="M607.149 299.131L601.396 299.285V308.424L603.42 308.879L607.149 299.131Z" fill="#E43E54"/>
<path d="M315.509 264.9C315.509 264.9 335.256 286.917 339.839 289.018C343.241 290.578 361.138 289.442 361.138 289.442L364.77 297.486L340.695 306.167C340.695 306.167 324.128 300.325 322.881 300.419C321.632 300.514 317.59 300.691 317.59 300.691L315.509 264.9Z" fill="#E43E54"/>
<path d="M363.425 293.017L365.755 290.861L365.925 286.129L366.868 285.703L367.449 286.968L368.627 283.134L371.217 281.488L374.983 283.345L377.071 287.411L375.14 291.206L371.024 293.764L366.173 298.684L363.425 293.017Z" fill="#EAC5B0"/>
<path d="M264.876 328.37C264.876 328.37 257.465 352.29 265.315 353.775C269.805 354.626 268.385 365.364 268.385 365.364L272.552 416.828L263.85 451.693L273.993 452.201C273.993 452.201 283.927 437.268 288.621 416.561C294.093 392.42 296.354 365.616 296.539 364.909C296.881 363.597 304.516 330.353 304.516 330.353L264.876 328.37Z" fill="#490C14"/>
<path d="M298.211 352.393L296.539 364.909L311.745 417.718L309.883 454.956L318.836 454.445L326.042 412.279L328.962 348.844L298.211 352.393" fill="#490C14"/>
<path d="M272.613 450.89L277.325 458.398L274.296 463.295L266.232 461.962L263.457 451.934L272.613 450.89Z" fill="#490C14"/>
<path d="M320.455 452.913C319.471 452.335 318.178 452.023 316.245 451.92C313.933 451.798 311.594 451.554 309.28 451.554C308.126 451.493 312.307 459.013 312.97 459.602C316.007 462.298 320.597 463.392 324.26 461.237C324.588 461.044 324.925 460.805 325.052 460.445C325.218 459.973 324.97 459.464 324.729 459.024C323.008 455.887 322.24 453.962 320.455 452.913Z" fill="#490C14"/>
<path d="M343.987 380.849C341.253 374.292 330.931 333.871 330.931 333.871C327.626 324.874 329.057 315.881 326.87 302.489C325.022 291.162 321.691 261.384 308.323 258.959C297.692 257.03 286.031 264.429 277.238 273.226L277.24 273.23L277.263 273.207C277.263 273.207 262.467 287.871 261.226 321.393C260.832 332.065 258.836 341.052 256.574 348.49C251.732 364.418 245.669 373.237 251.484 376.221C253.103 377.052 255.099 377.633 257.346 378.009C266.937 379.613 281.139 377.448 290.49 374.716C302.032 371.342 325.734 378.454 325.734 378.454C325.734 378.454 329.642 380.121 333.867 381.49C339.43 383.292 345.541 384.577 343.987 380.849" fill="#E43E54"/>
<path d="M302.58 232.132C306.433 233.127 311.043 237.121 311.749 241.803C312.09 244.059 311.342 246.082 311.792 248.478C312.66 253.206 307.309 259.839 312.103 263.335C314.567 265.131 317.779 264.75 320.707 264.303C321.062 264.249 321.433 264.187 321.724 263.949C322.203 263.555 322.318 262.779 322.176 262.136C322.035 261.493 321.689 260.939 321.392 260.37C318.275 254.417 319.515 246.164 318.521 239.512C317.527 232.873 314.727 226.17 309.095 223.183C306.115 225.143 303.512 227.14 302.606 230.886L302.58 232.132" fill="#3B455A"/>
<path d="M308.29 262.914C312.125 261.293 312.579 254.872 313.62 250.407C314.66 245.943 314.249 241.221 313.368 236.739C310.437 221.825 293.852 225.225 289.404 237.631C285.527 248.442 297.139 267.627 308.29 262.914Z" fill="#EAC5B0"/>
<path d="M286.533 268.766C288.435 267.568 290.305 266.308 291.49 263.951C293.407 260.143 292.984 254.055 293.4 249.841C293.839 245.398 294.441 240.563 297.307 237.448C299.18 235.413 301.382 234.939 303.85 234.779C304.381 234.745 304.753 234.793 305.057 234.84C305.722 234.943 306.064 235.046 307.026 234.299C308.102 233.464 308.978 231.078 309.197 229.697C309.564 227.367 308.679 224.968 307.281 223.231C305.127 220.557 302.623 219.296 299.483 219.363C288.459 219.596 280.378 227.345 277.581 239.627C276.236 245.531 277.508 251.977 276.057 257.666C275.162 261.178 273.252 263.579 272.547 267.308C270.72 276.983 266.339 289.452 266.948 299.341C266.971 299.707 267.02 300.111 267.269 300.344C267.778 300.817 268.505 300.178 268.923 299.592C271.361 296.169 273.799 292.747 276.236 289.324C277.194 287.98 278.164 286.613 278.759 285.027C280.241 281.08 279.296 276.107 281.68 272.76C282.98 270.934 284.77 269.877 286.533 268.766" fill="#490C14"/>
<path d="M302.432 230.265L239.753 231.759L240.59 266.952L295.032 265.655L302.98 253.263L306.741 253.174L315.269 265.173L370.069 263.868L369.231 228.675L302.432 230.265" fill="#EED5D5"/>
<path d="M248.152 238.357L294.714 237.248L295.045 251.129L290.248 258.609L248.658 259.6L248.152 238.357Z" fill="#D67086"/>
<path d="M361.155 235.666L314.592 236.775L314.923 250.655L320.071 257.898L361.661 256.908L361.155 235.666" fill="#F4A6B0"/>
<path d="M248.586 259.534L248.656 259.5L248.656 259.532L248.586 259.534ZM295.041 250.993L294.923 246.014L295.057 250.97L295.041 250.993V250.993ZM294.655 237.25L294.686 237.234L294.687 237.248L294.655 237.25Z" fill="#E0C8C8"/>
<path d="M248.656 259.532L248.656 259.5L294.655 237.25L294.687 237.248L294.923 246.014L295.041 250.993L290.22 258.529L248.656 259.532" fill="#C9697E"/>
<path d="M320.067 257.989L320.242 257.894L361.661 256.907L361.157 235.756L361.242 235.71L361.7 256.985L320.067 257.989" fill="#E0C8C8"/>
<path d="M320.242 257.895L361.157 235.756L361.661 256.908L320.242 257.895" fill="#4349B0"/>
<path d="M271.001 273.01L277.61 276.089L266.332 316.887L261.635 323.11C261.635 323.11 244.79 314.148 250.868 300.981C256.945 287.815 271.001 273.01 271.001 273.01" fill="#E43E54"/>
<path d="M270.235 274.725L273.024 270.278L272.261 265.589L273.061 264.89L273.852 265.956L274.207 261.846L276.313 259.46L280.204 260.154L282.955 263.514L281.888 267.81L280.772 273.789L274.944 277.82L270.235 274.725" fill="#EAC5B0"/>
<path d="M259.433 132.877C245.134 137.482 228.16 135.071 217.102 125.68C213.906 122.966 211.224 119.789 208.306 116.822C202.666 111.087 197.011 106.315 191.002 102.522C186.727 97.0097 181.053 92.4457 174.205 89.4236C152.208 79.7146 126.446 89.584 116.664 111.467C106.883 133.349 116.785 158.958 138.783 168.667C160.78 178.376 186.543 168.506 196.324 146.624C198.911 140.837 200.109 134.789 200.083 128.844C205.252 134.053 210.338 139.17 217.493 142.592C230.552 148.835 246.553 153.911 260.655 149.321L259.433 132.877Z" fill="#F4A6B0"/>
<path d="M170.674 97.3228C188.286 105.096 196.215 125.6 188.383 143.119C180.551 160.639 159.925 168.54 142.313 160.768C124.702 152.994 116.774 132.491 124.605 114.971C132.436 97.4513 153.062 89.5502 170.674 97.3228" fill="#490C14"/>
<path d="M208.289 140.598L176.829 125.878C175.506 125.259 175.36 123.225 176.585 122.452L205.694 104.091C207.034 103.245 208.763 103.867 209.456 105.444C211.457 110.002 212.77 114.892 213.333 119.91C214.05 126.301 213.532 132.744 211.829 138.802C211.365 140.449 209.739 141.276 208.289 140.598V140.598ZM208.962 149.723C207.298 154.081 204.926 158.169 201.939 161.812C198.135 166.452 193.427 170.255 188.143 172.974C186.705 173.714 185.002 173.103 184.439 171.644L172.206 139.967C171.691 138.635 172.961 137.216 174.345 137.579L207.225 146.199C208.738 146.595 209.537 148.216 208.962 149.723V149.723ZM178.49 178.459C172.723 181.044 166.395 182.521 159.931 182.778C154.857 182.978 149.798 182.423 144.965 181.141C143.293 180.698 142.415 179.09 143.054 177.646L156.935 146.274C157.519 144.953 159.563 144.79 160.379 145.998L179.744 174.71C180.636 176.032 180.059 177.756 178.49 178.459V178.459ZM133.112 176.39C127.717 174.122 122.825 170.739 118.779 166.457C115.602 163.097 113.006 159.247 111.095 155.075C110.434 153.632 111.128 151.969 112.6 151.458L144.624 140.346C145.972 139.878 147.315 141.178 146.886 142.536L136.698 174.784C136.229 176.268 134.579 177.006 133.112 176.39V176.39ZM107.876 146.524C105.297 140.785 103.833 134.489 103.598 128.062C103.413 123.015 103.989 117.985 105.295 113.182C105.746 111.52 107.366 110.649 108.815 111.287L140.317 125.146C141.643 125.729 141.801 127.763 140.583 128.571L111.642 147.778C110.309 148.662 108.578 148.085 107.876 146.524V146.524ZM108.143 102.782C110.537 97.4628 114.044 92.6671 118.434 88.7274C121.88 85.6347 125.806 83.1293 130.041 81.3112C131.506 80.6825 133.164 81.4042 133.646 82.8792L144.137 114.935C144.578 116.283 143.242 117.593 141.887 117.14L109.681 106.379C108.198 105.883 107.491 104.229 108.143 102.782V102.782ZM137.721 77.3511C142.301 75.346 147.217 74.0236 152.261 73.4464C158.688 72.7108 165.168 73.2033 171.262 74.8763C172.92 75.3313 173.755 76.947 173.075 78.3897L158.328 109.725C157.708 111.043 155.662 111.194 154.883 109.979L136.367 81.0968C135.515 79.768 136.137 78.0454 137.721 77.3511V77.3511ZM152.677 123.045C151.785 124.028 150.262 124.106 149.273 123.22C148.286 122.334 148.208 120.819 149.1 119.835C149.992 118.853 151.516 118.775 152.504 119.66C153.491 120.547 153.569 122.062 152.677 123.045V123.045ZM148.472 130.754C147.142 130.808 146.021 129.781 145.966 128.459C145.912 127.136 146.946 126.02 148.276 125.966C149.606 125.91 150.727 126.938 150.782 128.26C150.836 129.582 149.802 130.699 148.472 130.754V130.754ZM149.903 133.72C150.778 132.722 152.301 132.617 153.303 133.486C154.306 134.355 154.41 135.869 153.536 136.867C152.661 137.865 151.139 137.97 150.136 137.101C149.133 136.232 149.028 134.719 149.903 133.72ZM161.274 137.479C161.373 138.799 160.375 139.949 159.048 140.048C157.721 140.146 156.566 139.156 156.468 137.836C156.369 136.516 157.366 135.367 158.693 135.269C160.021 135.17 161.176 136.159 161.274 137.479V137.479ZM157.607 120.642C156.28 120.741 155.124 119.751 155.026 118.431C154.929 117.112 155.925 115.962 157.252 115.863C158.579 115.765 159.734 116.755 159.833 118.074C159.931 119.394 158.935 120.544 157.607 120.642V120.642ZM165.518 127.651C165.464 126.328 166.498 125.212 167.828 125.157C169.158 125.102 170.28 126.129 170.334 127.451C170.389 128.774 169.354 129.89 168.024 129.945C166.695 130 165.573 128.973 165.518 127.651ZM162.764 119.043C163.639 118.045 165.161 117.94 166.164 118.81C167.167 119.678 167.272 121.192 166.397 122.19C165.522 123.188 164 123.293 162.997 122.424C161.994 121.555 161.89 120.042 162.764 119.043ZM163.623 132.866C164.515 131.883 166.039 131.804 167.027 132.691C168.014 133.576 168.092 135.092 167.2 136.075C166.308 137.057 164.784 137.136 163.796 136.25C162.809 135.364 162.731 133.849 163.623 132.866V132.866ZM180.35 78.7823C184.634 80.2186 188.659 82.3612 192.248 85.125C196.82 88.6453 200.575 93.0878 203.27 98.1418C204.003 99.5163 203.411 101.212 201.982 101.828L170.95 115.205C169.645 115.767 168.247 114.586 168.596 113.215L176.898 80.6386C177.28 79.14 178.867 78.2853 180.35 78.7823ZM153.704 68.0959C119.98 70.6012 94.6269 99.3553 97.0763 132.321C99.525 165.286 128.848 189.979 162.571 187.473C196.295 184.968 221.648 156.214 219.199 123.249C216.75 90.284 187.427 65.5912 153.704 68.0959" fill="#D67086"/>
<path d="M220.785 450.251L212.81 429.384L223.64 427.398L229.043 448.678L220.785 450.251" fill="#EAC5B0"/>
<path d="M160.972 449.086L159.439 431.375H170.843L168.483 448.285L160.972 449.086Z" fill="#EAC5B0"/>
<path d="M156.293 336.602L155.299 350.439L157.286 438.06H173.596L182.627 373.273L188.755 353.411L187.768 328.748L156.293 336.602Z" fill="#BABCBE"/>
<path d="M203.406 332.523L188.146 331.223L188.133 355.19L211.731 438.113L227.993 435.228L221.89 365.713C221.89 365.713 226.2 341.48 223.086 338.26C229.885 337.053 233.901 340.639 226.828 323.358C212.915 326.828 203.406 332.523 203.406 332.523" fill="#BABCBE"/>
<path d="M161.218 448.416L151.846 454.829L153.127 459.268L171.377 456.801L168.617 448.416H161.218" fill="#490C14"/>
<path d="M229.043 448.678L220.865 450.132L214.737 458.917L218.468 463.364L227.153 458.755L229.043 448.678Z" fill="#490C14"/>
<path d="M149.873 342.559C156.779 341.079 177.95 327.628 183.909 327.761C206.106 328.254 205.612 344.532 229.783 348.971C253.953 353.411 269.146 354.902 266.235 348.731L266.237 348.728C256.401 328.032 247.044 307.214 238.474 285.756C234.107 274.819 229.895 263.681 223.538 253.705C219.044 246.653 211.241 234.67 202.896 232.708C202.722 232.667 202.546 232.627 202.37 232.588C193.595 230.663 182.353 231.556 174.424 235.821C172.92 236.631 171.582 237.709 170.254 238.781C166.376 241.908 163.214 243.602 161.542 248.368C160.092 252.506 159.754 257.021 158.954 261.309C157.328 270.022 154.114 269.32 155.06 287.602C156.273 311.036 149.279 322.525 145.777 337.045C145.777 337.045 145.418 338.525 145.247 339.231C145.046 341.141 145.595 343.476 149.873 342.559" fill="#E45E5E"/>
<path d="M188.841 232.067C188.841 232.067 170.59 229.601 166.644 258.211C163.137 283.639 166.15 301.618 164.178 306.058C162.205 310.497 155.299 340.586 155.299 340.586L178.976 332.694C178.976 332.694 188.348 329.734 223.37 347.492C223.37 347.492 215.061 315.954 211.039 298.659C206.106 277.448 206.106 232.067 188.841 232.067Z" fill="white"/>
<path d="M174.338 214.405C172.811 218.989 175.021 223.877 176.96 228.054C178.68 231.759 179.278 234.197 174.912 235.197C172.452 235.76 168.086 236.811 165.928 234.927C164.294 233.5 165.213 229.093 166.007 227.342C166.614 226.006 168.221 225.327 168.793 223.974C169.028 223.416 169.062 222.797 169.07 222.192C169.104 219.72 168.763 217.244 168.059 214.874C167.583 213.266 166.937 211.685 166.792 210.013C166.584 207.588 168.298 204.763 169.199 202.535C170.875 198.39 176.71 192.83 181.596 196.084C182.708 196.825 183.356 198.077 183.897 199.299C184.221 200.029 184.527 200.79 184.537 201.588C184.575 204.77 181.669 205.307 179.663 206.822C177.188 208.69 175.312 211.48 174.338 214.405Z" fill="#490C14"/>
<path d="M185.231 234.534C180.994 233.535 177.681 229.977 176.088 225.925C174.496 221.874 174.413 217.38 174.853 213.049C176.318 198.637 194.247 199.562 200.319 210.608C205.609 220.235 197.552 237.436 185.231 234.534" fill="#EAC5B0"/>
<path d="M196.8 215.152C196.982 217.405 195.8 219.91 197.038 221.801C197.59 222.644 198.515 223.149 199.297 223.783C201.434 225.516 202.541 228.432 202.093 231.146C206.605 230.972 211.117 230.798 215.628 230.624C216.309 230.598 217.022 230.562 217.605 230.209C218.849 229.455 218.915 227.706 218.835 226.253C218.675 223.392 218.442 220.328 216.66 218.084C215.834 217.044 214.725 216.255 213.902 215.212C209.944 210.195 213.816 201.385 208.998 197.186C206.849 195.313 203.731 195.174 201.096 194.083C196.502 192.182 193.483 187.421 188.776 185.821C179.884 182.801 171.271 193.642 176.542 201.563C180.839 208.023 196.067 206.079 196.8 215.152" fill="#490C14"/>
<path d="M147.869 191.882L147.987 182.652L144.044 182.43L144.805 190.975L140.748 187.762L141.61 195.673L145.677 196.458L147.869 191.882" fill="#EAC5B0"/>
<path d="M137.777 195.76L139.569 229.897L157.238 267.319L171.276 241.539L155.299 226.878L146.555 194.968L137.777 195.76" fill="#E5E5E5"/>
<path d="M185.408 245.587L184.498 236.823L185.843 234.485L187.745 240.509L189.322 239.64L189.222 247.123L185.57 247.75L185.408 245.587" fill="#EAC5B0"/>
<path d="M183.43 247.074L198.191 277.832L212.287 298.06L221.446 278.471L190.921 243.282L183.43 247.074" fill="#E45E5E"/>
</svg>
